<svg width="18" height="19" viewBox="0 0 18 19" fill="none" xmlns="http://www.w3.org/2000/svg">
<path d="M8.03633 7.2878H2.30307C2.08481 7.28576 1.86866 7.33076 1.66935 7.41974C1.47004 7.50872 1.29224 7.6396 1.14804 7.80346C1.00384 7.96732 0.896634 8.16032 0.833714 8.36933C0.770794 8.57834 0.753638 8.79845 0.783412 9.01468C0.818281 9.41465 1.00329 9.78659 1.30124 10.0557C1.59918 10.3248 1.98797 10.4711 2.38941 10.4653H2.66572C2.30813 10.4784 1.96879 10.6265 1.71593 10.8797C1.59404 11.0086 1.49916 11.1605 1.43688 11.3266C1.3746 11.4927 1.34618 11.6695 1.35328 11.8468C1.35964 12.1955 1.49292 12.5299 1.72816 12.7874C1.9634 13.0449 2.28446 13.2078 2.63118 13.2455C2.46604 13.3751 2.33217 13.5402 2.2395 13.7285C2.14683 13.9168 2.09773 14.1236 2.09584 14.3335C2.09346 14.6583 2.20416 14.9738 2.40897 15.2258C2.61378 15.4779 2.89993 15.6509 3.21832 15.715C3.047 16.0064 2.99152 16.3516 3.0629 16.6821C3.15453 16.9978 3.34836 17.2743 3.614 17.468C3.87965 17.6618 4.20208 17.7619 4.53075 17.7527H8.48532C9.00333 17.7503 9.51923 17.6865 10.0222 17.5628L12.4744 16.7511H15.7555C17.4824 16.7511 17.9487 8.73838 15.7555 8.73838C15.4392 8.7558 15.1221 8.7558 14.8057 8.73838C14.8057 8.73838 14.5467 8.41027 14.115 7.94401C13.476 7.25326 12.768 6.37255 12.2672 5.88902C11.038 4.80382 10.0396 3.48244 9.33149 2.00353C9.19116 1.67933 9.00507 1.37692 8.77889 1.10555C8.49128 0.863675 8.12018 0.744436 7.74551 0.773505C7.37084 0.802574 7.02257 0.977627 6.7757 1.26097C6.59674 1.45452 6.45088 1.67622 6.34398 1.91718C6.27644 2.08475 6.22441 2.25817 6.18856 2.43525C6.14223 2.92212 6.18317 3.41335 6.30944 3.88583C6.41249 4.38466 6.56881 4.87097 6.7757 5.33642C7.10288 5.94517 7.48434 6.52314 7.91545 7.0633C7.96873 7.09613 8.01086 7.14428 8.03633 7.20145" stroke="#99A2AD" stroke-width="1.5" stroke-linecap="round" stroke-linejoin="round"/>
</svg>
