<svg width="10" height="10" viewBox="0 0 10 10" fill="none" xmlns="http://www.w3.org/2000/svg">
<path d="M5 0C7.76077 0 10 2.23846 10 5C10 7.76154 7.76077 10 5 10C2.23846 10 0 7.76154 0 5C0 2.23846 2.23846 0 5 0ZM5 1.15385C2.87571 1.15385 1.15385 2.87571 1.15385 5C1.15385 7.12429 2.87571 8.84615 5 8.84615C7.12381 8.84615 8.84615 7.12399 8.84615 5C8.84615 2.87601 7.12381 1.15385 5 1.15385ZM4.66942 2.44615C4.98805 2.44615 5.24635 2.70445 5.24635 3.02308V4.87622L7.07442 5.49508C7.37622 5.59725 7.53805 5.92473 7.43588 6.22653C7.33371 6.52833 7.00623 6.69017 6.70443 6.588L4.48443 5.83646C4.25016 5.75715 4.0925 5.53733 4.0925 5.29V3.02308C4.0925 2.70445 4.3508 2.44615 4.66942 2.44615Z" fill="#99A2AD"/>
</svg>
