<svg width="32" height="32" viewBox="0 0 32 32" fill="none" xmlns="http://www.w3.org/2000/svg">
<path d="M28.5 16C28.5 16.3978 28.342 16.7793 28.0607 17.0606C27.7794 17.3419 27.3978 17.5 27 17.5H16C15.6022 17.5 15.2207 17.3419 14.9393 17.0606C14.658 16.7793 14.5 16.3978 14.5 16C14.5 15.6022 14.658 15.2206 14.9393 14.9393C15.2207 14.658 15.6022 14.5 16 14.5H27C27.3978 14.5 27.7794 14.658 28.0607 14.9393C28.342 15.2206 28.5 15.6022 28.5 16ZM16 9.49997H27C27.3978 9.49997 27.7794 9.34194 28.0607 9.06064C28.342 8.77933 28.5 8.3978 28.5 7.99997C28.5 7.60215 28.342 7.22062 28.0607 6.93931C27.7794 6.65801 27.3978 6.49997 27 6.49997H16C15.6022 6.49997 15.2207 6.65801 14.9393 6.93931C14.658 7.22062 14.5 7.60215 14.5 7.99997C14.5 8.3978 14.658 8.77933 14.9393 9.06064C15.2207 9.34194 15.6022 9.49997 16 9.49997ZM27 22.5H16C15.6022 22.5 15.2207 22.658 14.9393 22.9393C14.658 23.2206 14.5 23.6021 14.5 24C14.5 24.3978 14.658 24.7793 14.9393 25.0606C15.2207 25.3419 15.6022 25.5 16 25.5H27C27.3978 25.5 27.7794 25.3419 28.0607 25.0606C28.342 24.7793 28.5 24.3978 28.5 24C28.5 23.6021 28.342 23.2206 28.0607 22.9393C27.7794 22.658 27.3978 22.5 27 22.5ZM9.93876 4.93872L7.00001 7.87497L6.06126 6.93497C5.77946 6.65318 5.39727 6.49487 4.99876 6.49487C4.60024 6.49487 4.21805 6.65318 3.93626 6.93497C3.65446 7.21677 3.49615 7.59896 3.49615 7.99747C3.49615 8.39599 3.65446 8.77818 3.93626 9.05998L5.93626 11.06C6.07561 11.1998 6.2412 11.3108 6.42353 11.3865C6.60586 11.4622 6.80134 11.5012 6.99876 11.5012C7.19618 11.5012 7.39166 11.4622 7.57398 11.3865C7.75631 11.3108 7.9219 11.1998 8.06126 11.06L12.0613 7.05997C12.343 6.77818 12.5014 6.39599 12.5014 5.99747C12.5014 5.59896 12.343 5.21677 12.0613 4.93497C11.7795 4.65318 11.3973 4.49487 10.9988 4.49487C10.6002 4.49487 10.218 4.65318 9.93626 4.93497L9.93876 4.93872ZM9.93876 12.9387L7.00001 15.875L6.06126 14.935C5.77946 14.6532 5.39727 14.4949 4.99876 14.4949C4.60024 14.4949 4.21805 14.6532 3.93626 14.935C3.65446 15.2168 3.49615 15.599 3.49615 15.9975C3.49615 16.396 3.65446 16.7782 3.93626 17.06L5.93626 19.06C6.07561 19.1998 6.2412 19.3108 6.42353 19.3865C6.60586 19.4622 6.80134 19.5012 6.99876 19.5012C7.19618 19.5012 7.39166 19.4622 7.57398 19.3865C7.75631 19.3108 7.9219 19.1998 8.06126 19.06L12.0613 15.06C12.343 14.7782 12.5014 14.396 12.5014 13.9975C12.5014 13.599 12.343 13.2168 12.0613 12.935C11.7795 12.6532 11.3973 12.4949 10.9988 12.4949C10.6002 12.4949 10.218 12.6532 9.93626 12.935L9.93876 12.9387ZM9.93876 20.9387L7.00001 23.875L6.06126 22.935C5.92173 22.7954 5.75608 22.6848 5.57378 22.6093C5.39147 22.5337 5.19608 22.4949 4.99876 22.4949C4.80143 22.4949 4.60604 22.5337 4.42374 22.6093C4.24143 22.6848 4.07579 22.7954 3.93626 22.935C3.79673 23.0745 3.68605 23.2402 3.61053 23.4225C3.53502 23.6048 3.49615 23.8001 3.49615 23.9975C3.49615 24.1948 3.53502 24.3902 3.61053 24.5725C3.68605 24.7548 3.79673 24.9204 3.93626 25.06L5.93626 27.06C6.07561 27.1998 6.2412 27.3108 6.42353 27.3865C6.60586 27.4622 6.80134 27.5012 6.99876 27.5012C7.19618 27.5012 7.39166 27.4622 7.57398 27.3865C7.75631 27.3108 7.9219 27.1998 8.06126 27.06L12.0613 23.06C12.343 22.7782 12.5014 22.396 12.5014 21.9975C12.5014 21.599 12.343 21.2168 12.0613 20.935C11.7795 20.6532 11.3973 20.4949 10.9988 20.4949C10.6002 20.4949 10.218 20.6532 9.93626 20.935L9.93876 20.9387Z" fill="#99A2AD"/>
</svg>
