<svg width="15" height="15" viewBox="0 0 15 15" fill="none" xmlns="http://www.w3.org/2000/svg">
<path d="M7.5 0C9.48912 0 11.3968 0.790176 12.8033 2.1967C14.2098 3.60322 15 5.51088 15 7.5C15 9.48912 14.2098 11.3968 12.8033 12.8033C11.3968 14.2098 9.48912 15 7.5 15C5.51088 15 3.60322 14.2098 2.1967 12.8033C0.790176 11.3968 0 9.48912 0 7.5C0 5.51088 0.790176 3.60322 2.1967 2.1967C3.60322 0.790176 5.51088 0 7.5 0V0Z" fill="white"/>
<path d="M7.5 14.0625C11.1244 14.0625 14.0625 11.1244 14.0625 7.5C14.0625 3.87563 11.1244 0.9375 7.5 0.9375C3.87563 0.9375 0.9375 3.87563 0.9375 7.5C0.9375 11.1244 3.87563 14.0625 7.5 14.0625Z" fill="#378FE9"/>
<path fill-rule="evenodd" clip-rule="evenodd" d="M11.1845 6.79668H10.6689C10.622 6.79668 10.5283 6.61855 10.2939 6.36543C9.94701 5.99043 9.56264 5.5123 9.29076 5.2498C8.61524 4.66522 8.06375 3.95115 7.66889 3.1498C7.44389 2.67168 7.42514 2.45605 6.96576 2.45605C6.78525 2.48155 6.62076 2.57356 6.50457 2.71404C6.38837 2.85452 6.32883 3.03333 6.33764 3.21543C6.33764 3.34668 6.40326 3.80605 6.43139 3.96543C6.63097 4.69886 6.94753 5.39531 7.36889 6.02793H3.86264C3.74843 6.02712 3.63529 6.05003 3.5304 6.09522C3.4255 6.1404 3.33113 6.20688 3.25326 6.29043C3.17501 6.37204 3.11525 6.46954 3.07804 6.57631C3.04083 6.68308 3.02705 6.79661 3.03764 6.90918C3.05209 7.12883 3.15088 7.3344 3.31337 7.4829C3.47585 7.63141 3.68945 7.71137 3.90951 7.70605H4.05951C3.86538 7.71321 3.68116 7.7936 3.54389 7.93105C3.41486 8.06774 3.34422 8.24936 3.34701 8.4373C3.34864 8.62621 3.42062 8.80773 3.5489 8.94641C3.67718 9.0851 3.85255 9.17098 4.04076 9.1873C3.9262 9.27495 3.83934 9.39378 3.7906 9.52954C3.74186 9.6653 3.7333 9.81224 3.76595 9.95274C3.7986 10.0932 3.87108 10.2214 3.97469 10.3217C4.07831 10.4221 4.20866 10.4904 4.35014 10.5186C4.25774 10.6735 4.22758 10.8578 4.26576 11.0342C4.3152 11.2065 4.42005 11.3578 4.5641 11.4645C4.70815 11.5713 4.88336 11.6276 5.06264 11.6248H7.20951C7.49073 11.6235 7.77081 11.5889 8.04389 11.5217L9.37514 11.1467H11.1564C12.1126 11.1092 12.3658 6.79668 11.1845 6.79668Z" fill="#D0E8FF"/>
<path d="M6.96572 6.0281H3.85322C3.73473 6.02699 3.61739 6.05143 3.50918 6.09973C3.40098 6.14804 3.30445 6.21909 3.22617 6.30805C3.14789 6.397 3.08969 6.50178 3.05553 6.61525C3.02137 6.72872 3.01206 6.84821 3.02822 6.9656C3.04715 7.18274 3.14759 7.38466 3.30934 7.53076C3.47109 7.67685 3.68216 7.75629 3.90009 7.7531H4.05009C3.85596 7.76026 3.67174 7.84065 3.53447 7.9781C3.4683 8.04806 3.41679 8.13054 3.38298 8.22071C3.34917 8.31087 3.33374 8.40688 3.33759 8.5031C3.34104 8.69241 3.4134 8.87397 3.54111 9.01376C3.66882 9.15355 3.84312 9.24198 4.03134 9.26248C3.94169 9.33281 3.86902 9.42242 3.81871 9.52466C3.7684 9.6269 3.74174 9.73916 3.74072 9.8531C3.73942 10.0294 3.79952 10.2007 3.91071 10.3375C4.0219 10.4744 4.17724 10.5683 4.35009 10.6031C4.25708 10.7613 4.22697 10.9487 4.26572 11.1281C4.31546 11.2995 4.42069 11.4496 4.56491 11.5548C4.70912 11.66 4.88416 11.7143 5.06259 11.7094H7.20947C7.49069 11.708 7.77076 11.6734 8.04384 11.6062L9.37509 11.1656H11.1563C12.0938 11.1656 12.347 6.8156 11.1563 6.8156C10.9846 6.82506 10.8125 6.82506 10.6407 6.8156C10.6407 6.8156 10.5001 6.63748 10.2657 6.38435C9.91884 6.00935 9.53447 5.53123 9.26259 5.26873C8.59527 4.67959 8.05327 3.96223 7.66884 3.15935C7.59266 2.98335 7.49163 2.81918 7.36884 2.67185C7.2127 2.54054 7.01124 2.47581 6.80783 2.49159C6.60443 2.50737 6.41536 2.60241 6.28134 2.75623C6.18419 2.8613 6.105 2.98166 6.04697 3.11248C6.0103 3.20345 5.98206 3.29759 5.96259 3.39373C5.93744 3.65804 5.95966 3.92472 6.02822 4.18123C6.08416 4.45203 6.16902 4.71604 6.28134 4.96873C6.45896 5.29921 6.66605 5.61298 6.90009 5.90623C6.92902 5.92405 6.95189 5.95019 6.96572 5.98123" stroke="#004182" stroke-width="1.125" stroke-linecap="round" stroke-linejoin="round"/>
</svg>
