<svg width="13" height="13" viewBox="0 0 13 13" fill="none" xmlns="http://www.w3.org/2000/svg">
<path d="M13 0.955882V12.0441C13 12.2976 12.8993 12.5408 12.72 12.72C12.5408 12.8993 12.2976 13 12.0441 13H0.955882C0.702367 13 0.459234 12.8993 0.279971 12.72C0.100709 12.5408 0 12.2976 0 12.0441L0 0.955882C0 0.702367 0.100709 0.459234 0.279971 0.279971C0.459234 0.100709 0.702367 0 0.955882 0L12.0441 0C12.2976 0 12.5408 0.100709 12.72 0.279971C12.8993 0.459234 13 0.702367 13 0.955882ZM3.82353 4.97059H1.91176V11.0882H3.82353V4.97059ZM3.99559 2.86765C3.9966 2.72304 3.96911 2.57965 3.9147 2.44566C3.86029 2.31167 3.78002 2.18971 3.67848 2.08675C3.57693 1.98379 3.4561 1.90183 3.32288 1.84557C3.18966 1.7893 3.04667 1.75982 2.90206 1.75882H2.86765C2.57357 1.75882 2.29154 1.87565 2.08359 2.08359C1.87565 2.29154 1.75882 2.57357 1.75882 2.86765C1.75882 3.16173 1.87565 3.44376 2.08359 3.6517C2.29154 3.85965 2.57357 3.97647 2.86765 3.97647C3.01227 3.98003 3.15617 3.95506 3.29113 3.90298C3.4261 3.8509 3.54948 3.77274 3.65423 3.67297C3.75898 3.57319 3.84304 3.45375 3.90161 3.32148C3.96018 3.1892 3.99212 3.04668 3.99559 2.90206V2.86765ZM11.0882 7.37177C11.0882 5.53265 9.91824 4.81765 8.75588 4.81765C8.3753 4.79859 7.99638 4.87965 7.65691 5.05274C7.31743 5.22583 7.02928 5.48491 6.82118 5.80412H6.76765V4.97059H4.97059V11.0882H6.88235V7.83441C6.85472 7.50116 6.95969 7.17047 7.17446 6.91418C7.38924 6.65788 7.69647 6.49668 8.02941 6.46559H8.10206C8.71 6.46559 9.16118 6.84794 9.16118 7.81147V11.0882H11.0729L11.0882 7.37177Z" fill="#0A66C2"/>
</svg>
