<svg width="36" height="36" viewBox="0 0 36 36" fill="none" xmlns="http://www.w3.org/2000/svg">
<path d="M32.5831 7.76583L32.5823 7.76668L20.4531 20.0303L13.8859 22.1152L15.9696 15.6139L28.1667 3.41682C28.6075 2.97637 29.1698 2.67775 29.7816 2.5593C30.3933 2.44085 31.0265 2.50799 31.5998 2.7521C32.1732 2.9962 32.6604 3.40612 32.999 3.92921C33.337 4.45143 33.5115 5.06263 33.5001 5.68456C33.4645 6.46833 33.1375 7.2106 32.5831 7.76583ZM26.5178 26.5177C26.9866 26.0489 27.25 25.413 27.25 24.75V18.25H31.25V24.75C31.25 26.4739 30.5652 28.1272 29.3462 29.3462C28.1272 30.5652 26.4739 31.25 24.75 31.25H11.25C9.52609 31.25 7.87279 30.5652 6.65381 29.3462C5.43482 28.1272 4.75 26.4739 4.75 24.75V11.25C4.75 9.52607 5.43482 7.87277 6.65381 6.65379C7.87279 5.4348 9.52609 4.74998 11.25 4.74998H17.75V8.74998H11.25C10.587 8.74998 9.95107 9.01337 9.48223 9.48221C9.01339 9.95105 8.75 10.5869 8.75 11.25V24.75C8.75 25.413 9.01339 26.0489 9.48223 26.5177C9.95107 26.9866 10.587 27.25 11.25 27.25H24.75C25.413 27.25 26.0489 26.9866 26.5178 26.5177Z" fill="#0A66C2" stroke="white" stroke-width="0.5"/>
</svg>
