<svg width="32" height="32" viewBox="0 0 32 32" fill="none" xmlns="http://www.w3.org/2000/svg">
<path d="M22.6667 7.99984V6.6665C22.6667 4.39984 20.9334 2.6665 18.6667 2.6665H13.3334C11.0667 2.6665 9.33342 4.39984 9.33342 6.6665V7.99984H2.66675V13.3332C2.66675 15.5998 4.40008 17.3332 6.66675 17.3332H25.3334C27.6001 17.3332 29.3334 15.5998 29.3334 13.3332V7.99984H22.6667ZM12.0001 6.6665C12.0001 5.8665 12.5334 5.33317 13.3334 5.33317H18.6667C19.4667 5.33317 20.0001 5.8665 20.0001 6.6665V7.99984H12.0001V6.6665ZM25.3334 18.6665C26.9334 18.6665 28.4001 17.9998 29.3334 16.7998V22.6665C29.3334 24.9332 27.6001 26.6665 25.3334 26.6665H6.66675C4.40008 26.6665 2.66675 24.9332 2.66675 22.6665V16.7998C3.60008 17.9998 5.06675 18.6665 6.66675 18.6665H25.3334Z" fill="#99A2AD"/>
</svg>
