<svg width="32" height="32" viewBox="0 0 32 32" fill="none" xmlns="http://www.w3.org/2000/svg">
<path d="M3.93875 14.9388L12.9387 5.93877C13.2205 5.65698 13.6027 5.49867 14.0012 5.49867C14.3998 5.49867 14.782 5.65698 15.0637 5.93877C15.3455 6.22057 15.5038 6.60276 15.5038 7.00127C15.5038 7.39979 15.3455 7.78198 15.0637 8.06377L8.625 14.5L27 14.5C27.3978 14.5 27.7794 14.6581 28.0607 14.9394C28.342 15.2207 28.5 15.6022 28.5 16C28.5 16.3978 28.342 16.7794 28.0607 17.0607C27.7794 17.342 27.3978 17.5 27 17.5H8.625L15.0612 23.94C15.343 24.2218 15.5014 24.604 15.5014 25.0025C15.5014 25.401 15.343 25.7832 15.0612 26.065C14.7795 26.3468 14.3973 26.5051 13.9987 26.5051C13.6002 26.5051 13.218 26.3468 12.9362 26.065L3.93625 17.065C3.79638 16.9255 3.68546 16.7597 3.60986 16.5772C3.53425 16.3946 3.49545 16.199 3.49569 16.0014C3.49592 15.8038 3.53518 15.6082 3.61121 15.4259C3.68725 15.2435 3.79856 15.078 3.93875 14.9388Z" fill="#0A66C2"/>
</svg>
