<svg width="16" height="16" viewBox="0 0 16 16" fill="none" xmlns="http://www.w3.org/2000/svg">
<path d="M13.4619 10.1913C13.4241 10.2826 13.36 10.3607 13.2778 10.4157C13.1956 10.4707 13.0989 10.5 13 10.5H3.00003C2.90108 10.5001 2.80433 10.4708 2.72204 10.4159C2.63974 10.361 2.57559 10.2828 2.53772 10.1914C2.49984 10.1 2.48994 9.99942 2.50926 9.90237C2.52859 9.80533 2.57627 9.7162 2.64628 9.64628L7.64628 4.64628C7.69271 4.59979 7.74786 4.56291 7.80856 4.53775C7.86926 4.51259 7.93432 4.49963 8.00003 4.49963C8.06574 4.49963 8.1308 4.51259 8.1915 4.53775C8.2522 4.56291 8.30734 4.59979 8.35378 4.64628L13.3538 9.64628C13.4237 9.71624 13.4713 9.80537 13.4905 9.90238C13.5098 9.99939 13.4998 10.0999 13.4619 10.1913Z" fill="#7CB82F"/>
</svg>
