<svg width="78" height="30" viewBox="0 0 78 30" fill="none" xmlns="http://www.w3.org/2000/svg">
<path d="M15 0C18.9782 0 22.7935 1.58035 25.6066 4.39339C28.4196 7.20644 30 11.0217 30 15C30 18.9782 28.4196 22.7935 25.6066 25.6066C22.7935 28.4196 18.9782 30 15 30C11.0217 30 7.20644 28.4196 4.39339 25.6066C1.58035 22.7935 0 18.9782 0 15C0 11.0217 1.58035 7.20644 4.39339 4.39339C7.20644 1.58035 11.0217 0 15 0V0Z" fill="white"/>
<path d="M15 28.125C22.2487 28.125 28.125 22.2487 28.125 15C28.125 7.75126 22.2487 1.875 15 1.875C7.75126 1.875 1.875 7.75126 1.875 15C1.875 22.2487 7.75126 28.125 15 28.125Z" fill="#99A2AD"/>
<path d="M38.9882 28.125C46.2369 28.125 52.1132 22.2487 52.1132 15C52.1132 7.75126 46.2369 1.875 38.9882 1.875C31.7395 1.875 25.8632 7.75126 25.8632 15C25.8632 22.2487 31.7395 28.125 38.9882 28.125Z" fill="#99A2AD"/>
<path d="M38.9882 1.875C41.5841 1.875 44.1217 2.64477 46.2801 4.08696C48.4384 5.52915 50.1207 7.579 51.1141 9.97728C52.1075 12.3756 52.3674 15.0146 51.861 17.5606C51.3546 20.1065 50.1045 22.4452 48.269 24.2808C46.4334 26.1163 44.0948 27.3664 41.5488 27.8728C39.0028 28.3792 36.3638 28.1193 33.9655 27.1259C31.5672 26.1325 29.5174 24.4502 28.0752 22.2918C26.633 20.1335 25.8632 17.5959 25.8632 15C25.8632 11.519 27.246 8.18064 29.7074 5.71922C32.1688 3.25781 35.5072 1.875 38.9882 1.875ZM38.9882 4.63798e-06C35.518 0.0027334 32.1561 1.20856 29.4753 3.41205C26.7945 5.61554 24.9606 8.68036 24.2861 12.0844C23.6116 15.4883 24.1382 19.0209 25.7761 22.0802C27.4141 25.1395 30.0621 27.5362 33.269 28.862C36.476 30.1878 40.0434 30.3608 43.3635 29.3513C46.6836 28.3418 49.551 26.2124 51.4771 23.3259C53.4033 20.4394 54.269 16.9743 53.9269 13.521C53.5847 10.0677 52.0558 6.83992 49.6007 4.3875C48.2066 2.99499 46.5519 1.89078 44.7309 1.13796C42.91 0.385136 40.9586 -0.00154479 38.9882 4.63798e-06Z" fill="white"/>
<path d="M63 0C66.9783 0 70.7936 1.58035 73.6066 4.39339C76.4196 7.20644 78 11.0217 78 15C78 18.9782 76.4196 22.7935 73.6066 25.6066C70.7936 28.4196 66.9783 30 63 30C59.0218 30 55.2065 28.4196 52.3934 25.6066C49.5804 22.7935 48 18.9782 48 15C48 11.0217 49.5804 7.20644 52.3934 4.39339C55.2065 1.58035 59.0218 0 63 0V0Z" fill="white"/>
<path d="M63 28.125C70.2487 28.125 76.125 22.2487 76.125 15C76.125 7.75126 70.2487 1.875 63 1.875C55.7513 1.875 49.875 7.75126 49.875 15C49.875 22.2487 55.7513 28.125 63 28.125Z" fill="#99A2AD"/>
</svg>
