<svg width="32" height="32" viewBox="0 0 32 32" fill="none" xmlns="http://www.w3.org/2000/svg">
<path d="M28.9431 6.88335L28.9423 6.8842L18.1656 17.7804L12.3859 19.6152L14.2196 13.894L25.0567 3.05684C25.4446 2.66924 25.9395 2.40645 26.4778 2.30222C27.0162 2.19798 27.5734 2.25707 28.0779 2.47188C28.5824 2.68669 29.0112 3.04742 29.3091 3.50774C29.6065 3.96719 29.7601 4.50491 29.7501 5.05208C29.7187 5.7417 29.4309 6.39479 28.9431 6.88335ZM23.591 23.591C24.0129 23.169 24.25 22.5967 24.25 22V16.25H27.75V22C27.75 23.525 27.1442 24.9875 26.0659 26.0659C24.9875 27.1442 23.525 27.75 22 27.75H10C8.47501 27.75 7.01247 27.1442 5.93414 26.0659C4.8558 24.9875 4.25 23.525 4.25 22V10C4.25 8.475 4.8558 7.01247 5.93414 5.93413C7.01247 4.8558 8.47501 4.25 10 4.25H15.75V7.75H10C9.40326 7.75 8.83097 7.98705 8.40901 8.40901C7.98705 8.83096 7.75 9.40326 7.75 10V22C7.75 22.5967 7.98705 23.169 8.40901 23.591C8.83097 24.0129 9.40326 24.25 10 24.25H22C22.5967 24.25 23.169 24.0129 23.591 23.591Z" fill="#99A2AD" stroke="white" stroke-width="0.5"/>
</svg>
