<svg width="26" height="26" viewBox="0 0 26 26" fill="none" xmlns="http://www.w3.org/2000/svg">
<path d="M13 8.53125C12.1162 8.53125 11.2522 8.79333 10.5173 9.28437C9.7824 9.7754 9.20963 10.4733 8.8714 11.2899C8.53317 12.1064 8.44468 13.005 8.6171 13.8718C8.78953 14.7387 9.21514 15.5349 9.8401 16.1599C10.4651 16.7848 11.2613 17.2105 12.1282 17.3829C12.995 17.5553 13.8935 17.4668 14.7101 17.1286C15.5267 16.7904 16.2246 16.2176 16.7156 15.4827C17.2066 14.7478 17.4687 13.8838 17.4687 13C17.4674 11.8152 16.9962 10.6794 16.1584 9.8416C15.3206 9.00384 14.1848 8.53259 13 8.53125ZM13 15.0312C12.5982 15.0312 12.2055 14.9121 11.8715 14.6889C11.5374 14.4657 11.2771 14.1485 11.1234 13.7773C10.9696 13.4062 10.9294 12.9977 11.0078 12.6037C11.0861 12.2097 11.2796 11.8478 11.5637 11.5637C11.8478 11.2796 12.2097 11.0862 12.6037 11.0078C12.9977 10.9294 13.4062 10.9696 13.7773 11.1234C14.1485 11.2771 14.4657 11.5375 14.6889 11.8715C14.9121 12.2055 15.0312 12.5983 15.0312 13C15.0312 13.5387 14.8172 14.0554 14.4363 14.4363C14.0554 14.8172 13.5387 15.0312 13 15.0312ZM20.8599 16.3211C20.4935 17.1873 19.9863 17.9869 19.3588 18.6875C19.1433 18.9284 18.841 19.0739 18.5182 19.0919C18.1955 19.1099 17.8788 18.999 17.6378 18.7835C17.3969 18.568 17.2514 18.2656 17.2334 17.9429C17.2154 17.6201 17.3264 17.3034 17.5419 17.0625C18.5428 15.9461 19.0964 14.4994 19.0964 13C19.0964 11.5006 18.5428 10.0539 17.5419 8.9375C17.3264 8.69655 17.2154 8.37988 17.2334 8.05713C17.2514 7.73439 17.3969 7.43201 17.6378 7.21652C17.8788 7.00103 18.1955 6.89008 18.5182 6.90808C18.841 6.92608 19.1433 7.07155 19.3588 7.3125C20.4363 8.51791 21.1493 10.0045 21.415 11.5992C21.6808 13.194 21.4883 14.8314 20.8599 16.3211ZM8.45811 17.0625C8.6736 17.3034 8.78455 17.6201 8.76655 17.9429C8.74855 18.2656 8.60308 18.568 8.36214 18.7835C8.12119 18.999 7.80452 19.1099 7.48177 19.0919C7.15903 19.0739 6.85665 18.9284 6.64116 18.6875C5.24091 17.124 4.46664 15.0989 4.46664 13C4.46664 10.9011 5.24091 8.87601 6.64116 7.3125C6.85665 7.07155 7.15903 6.92608 7.48177 6.90808C7.80452 6.89008 8.12119 7.00103 8.36214 7.21652C8.60308 7.43201 8.74855 7.73439 8.76655 8.05713C8.78455 8.37988 8.6736 8.69655 8.45811 8.9375C7.45716 10.0539 6.90359 11.5006 6.90359 13C6.90359 14.4994 7.45716 15.9461 8.45811 17.0625ZM25.5937 13C25.5977 16.2963 24.3052 19.4619 21.9954 21.8136C21.885 21.9342 21.7515 22.0314 21.6028 22.0993C21.454 22.1673 21.2932 22.2046 21.1297 22.2091C20.9663 22.2136 20.8036 22.1851 20.6514 22.1254C20.4992 22.0657 20.3605 21.976 20.2437 21.8617C20.1269 21.7473 20.0343 21.6106 19.9714 21.4597C19.9085 21.3087 19.8766 21.1467 19.8776 20.9832C19.8786 20.8197 19.9125 20.6581 19.9773 20.508C20.042 20.3578 20.1364 20.2223 20.2546 20.1094C22.1184 18.2124 23.1627 15.6594 23.1627 13C23.1627 10.3406 22.1184 7.7876 20.2546 5.89062C20.0283 5.65978 19.903 5.34851 19.9063 5.02529C19.9095 4.70207 20.041 4.39337 20.2719 4.16711C20.5027 3.94084 20.814 3.81555 21.1372 3.81879C21.4604 3.82202 21.7691 3.95353 21.9954 4.18437C24.3057 6.53652 25.5982 9.70299 25.5937 13ZM5.74538 20.1094C5.97164 20.3402 6.09694 20.6515 6.0937 20.9747C6.09046 21.2979 5.95896 21.6066 5.72811 21.8329C5.49727 22.0592 5.186 22.1844 4.86278 22.1812C4.53956 22.178 4.23086 22.0465 4.0046 21.8156C1.69565 19.4631 0.4021 16.2984 0.4021 13.002C0.4021 9.7057 1.69565 6.541 4.0046 4.18843C4.23399 3.9753 4.53661 3.85864 4.84971 3.86264C5.1628 3.86663 5.46235 3.99098 5.68623 4.20989C5.91011 4.42881 6.04114 4.72549 6.05215 5.03842C6.06316 5.35135 5.95331 5.65651 5.74538 5.89062C3.88158 7.7876 2.83725 10.3406 2.83725 13C2.83725 15.6594 3.88158 18.2124 5.74538 20.1094Z" fill="#99A2AD"/>
</svg>
