<svg width="43" height="18" viewBox="0 0 43 18" fill="none" xmlns="http://www.w3.org/2000/svg">
<path d="M9 0C11.3869 0 13.6761 0.948212 15.364 2.63604C17.0518 4.32387 18 6.61305 18 9C18 11.3869 17.0518 13.6761 15.364 15.364C13.6761 17.0518 11.3869 18 9 18C6.61305 18 4.32387 17.0518 2.63604 15.364C0.948212 13.6761 0 11.3869 0 9C0 6.61305 0.948212 4.32387 2.63604 2.63604C4.32387 0.948212 6.61305 0 9 0V0Z" fill="white"/>
<path d="M9 16.875C13.3492 16.875 16.875 13.3492 16.875 9C16.875 4.65076 13.3492 1.125 9 1.125C4.65076 1.125 1.125 4.65076 1.125 9C1.125 13.3492 4.65076 16.875 9 16.875Z" fill="#99A2AD"/>
<path d="M21 16.875C25.3492 16.875 28.875 13.3492 28.875 9C28.875 4.65076 25.3492 1.125 21 1.125C16.6508 1.125 13.125 4.65076 13.125 9C13.125 13.3492 16.6508 16.875 21 16.875Z" fill="#99A2AD"/>
<path d="M21 1.125C22.5575 1.125 24.0801 1.58686 25.3751 2.45218C26.6702 3.3175 27.6795 4.5474 28.2756 5.98637C28.8716 7.42534 29.0276 9.00874 28.7237 10.5363C28.4198 12.0639 27.6698 13.4671 26.5685 14.5685C25.4671 15.6698 24.064 16.4198 22.5364 16.7237C21.0088 17.0275 19.4254 16.8716 17.9864 16.2756C16.5474 15.6795 15.3175 14.6702 14.4522 13.3751C13.5869 12.0801 13.125 10.5575 13.125 9C13.125 6.91142 13.9547 4.90839 15.4316 3.43154C16.9084 1.95469 18.9114 1.125 21 1.125ZM21 2.78279e-06C18.9179 0.00164004 16.9008 0.725138 15.2923 2.04723C13.6838 3.36933 12.5835 5.20822 12.1787 7.25062C11.774 9.29302 12.09 11.4126 13.0728 13.2481C14.0556 15.0837 15.6444 16.5217 17.5685 17.3172C19.4927 18.1127 21.6331 18.2165 23.6252 17.6108C25.6173 17.0051 27.3377 15.7275 28.4934 13.9955C29.6491 12.2636 30.1685 10.1846 29.9632 8.11261C29.7579 6.04065 28.8406 4.10396 27.3675 2.6325C26.5311 1.79699 25.5382 1.13447 24.4457 0.682775C23.3531 0.231082 22.1823 -0.000926873 21 2.78279e-06Z" fill="white"/>
<path d="M33.0071 16.875C37.3563 16.875 40.8821 13.3492 40.8821 9C40.8821 4.65076 37.3563 1.125 33.0071 1.125C28.6578 1.125 25.1321 4.65076 25.1321 9C25.1321 13.3492 28.6578 16.875 33.0071 16.875Z" fill="#99A2AD"/>
<path d="M33.0071 1.125C34.5646 1.125 36.0872 1.58686 37.3822 2.45218C38.6772 3.3175 39.6866 4.5474 40.2826 5.98637C40.8787 7.42534 41.0346 9.00874 40.7308 10.5363C40.4269 12.0639 39.6769 13.4671 38.5756 14.5685C37.4742 15.6698 36.071 16.4198 34.5434 16.7237C33.0158 17.0275 31.4324 16.8716 29.9935 16.2756C28.5545 15.6795 27.3246 14.6702 26.4593 13.3751C25.594 12.0801 25.1321 10.5575 25.1321 9C25.1321 6.91142 25.9618 4.90839 27.4386 3.43154C28.9155 1.95469 30.9185 1.125 33.0071 1.125ZM33.0071 2.78279e-06C30.925 0.00164004 28.9079 0.725138 27.2994 2.04723C25.6909 3.36933 24.5905 5.20822 24.1858 7.25062C23.7811 9.29302 24.0971 11.4126 25.0799 13.2481C26.0626 15.0837 27.6515 16.5217 29.5756 17.3172C31.4998 18.1127 33.6402 18.2165 35.6323 17.6108C37.6243 17.0051 39.3448 15.7275 40.5005 13.9955C41.6562 12.2636 42.1756 10.1846 41.9703 8.11261C41.765 6.04065 40.8477 4.10396 39.3746 2.6325C38.5382 1.79699 37.5453 1.13447 36.4527 0.682775C35.3602 0.231082 34.1893 -0.000926873 33.0071 2.78279e-06Z" fill="white"/>
</svg>
