<svg width="32" height="32" viewBox="0 0 32 32" fill="none" xmlns="http://www.w3.org/2000/svg">
<path d="M30 25.5H28.5V12C28.5 11.337 28.2366 10.7011 27.7678 10.2322C27.2989 9.7634 26.663 9.50001 26 9.50001H21.5V4.00001C21.4998 3.57975 21.3938 3.16632 21.1915 2.79792C20.9893 2.42952 20.6975 2.11804 20.343 1.89228C19.9885 1.66652 19.5829 1.53376 19.1635 1.50627C18.7442 1.47878 18.3247 1.55745 17.9438 1.73501L4.94375 7.80251C4.51288 8.00436 4.14834 8.32463 3.89269 8.72592C3.63704 9.12721 3.50084 9.59295 3.5 10.0688V25.5H2C1.60218 25.5 1.22064 25.658 0.93934 25.9394C0.658035 26.2207 0.5 26.6022 0.5 27C0.5 27.3978 0.658035 27.7794 0.93934 28.0607C1.22064 28.342 1.60218 28.5 2 28.5H30C30.3978 28.5 30.7794 28.342 31.0607 28.0607C31.342 27.7794 31.5 27.3978 31.5 27C31.5 26.6022 31.342 26.2207 31.0607 25.9394C30.7794 25.658 30.3978 25.5 30 25.5ZM25.5 12.5V25.5H21.5V12.5H25.5ZM6.5 10.3863L18.5 4.78751V25.5H6.5V10.3863ZM16.5 14V15.5C16.5 15.8978 16.342 16.2794 16.0607 16.5607C15.7794 16.842 15.3978 17 15 17C14.6022 17 14.2206 16.842 13.9393 16.5607C13.658 16.2794 13.5 15.8978 13.5 15.5V14C13.5 13.6022 13.658 13.2207 13.9393 12.9393C14.2206 12.658 14.6022 12.5 15 12.5C15.3978 12.5 15.7794 12.658 16.0607 12.9393C16.342 13.2207 16.5 13.6022 16.5 14ZM11.5 14V15.5C11.5 15.8978 11.342 16.2794 11.0607 16.5607C10.7794 16.842 10.3978 17 10 17C9.60218 17 9.22064 16.842 8.93934 16.5607C8.65804 16.2794 8.5 15.8978 8.5 15.5V14C8.5 13.6022 8.65804 13.2207 8.93934 12.9393C9.22064 12.658 9.60218 12.5 10 12.5C10.3978 12.5 10.7794 12.658 11.0607 12.9393C11.342 13.2207 11.5 13.6022 11.5 14ZM11.5 20.5V22C11.5 22.3978 11.342 22.7794 11.0607 23.0607C10.7794 23.342 10.3978 23.5 10 23.5C9.60218 23.5 9.22064 23.342 8.93934 23.0607C8.65804 22.7794 8.5 22.3978 8.5 22V20.5C8.5 20.1022 8.65804 19.7207 8.93934 19.4394C9.22064 19.158 9.60218 19 10 19C10.3978 19 10.7794 19.158 11.0607 19.4394C11.342 19.7207 11.5 20.1022 11.5 20.5ZM16.5 20.5V22C16.5 22.3978 16.342 22.7794 16.0607 23.0607C15.7794 23.342 15.3978 23.5 15 23.5C14.6022 23.5 14.2206 23.342 13.9393 23.0607C13.658 22.7794 13.5 22.3978 13.5 22V20.5C13.5 20.1022 13.658 19.7207 13.9393 19.4394C14.2206 19.158 14.6022 19 15 19C15.3978 19 15.7794 19.158 16.0607 19.4394C16.342 19.7207 16.5 20.1022 16.5 20.5Z" fill="#99A2AD"/>
</svg>
