<svg width="7" height="10" viewBox="0 0 7 10" fill="none" xmlns="http://www.w3.org/2000/svg">
<path d="M6.91569 4.67391L2.46055 9.44727C2.41334 9.49765 2.35102 9.53131 2.283 9.54317C2.21498 9.55503 2.14495 9.54445 2.08347 9.51301C2.02199 9.48158 1.97241 9.431 1.9422 9.36891C1.91199 9.30682 1.90279 9.2366 1.91599 9.16882L2.49914 6.2519L0.206734 5.39111C0.157502 5.37269 0.113598 5.34237 0.0789447 5.30284C0.0442916 5.26332 0.0199688 5.21583 0.00814932 5.16461C-0.00367022 5.11339 -0.0026183 5.06004 0.011211 5.00933C0.0250403 4.95862 0.0512162 4.91212 0.0874003 4.87399L4.54253 0.100635C4.58975 0.0502508 4.65206 0.016589 4.72009 0.00472946C4.78811 -0.00713005 4.85814 0.00345625 4.91962 0.0348909C4.9811 0.0663255 5.03068 0.116903 5.06089 0.178991C5.0911 0.241079 5.1003 0.311308 5.08709 0.379081L4.50236 3.29918L6.79476 4.15878C6.84363 4.17732 6.88718 4.20762 6.92157 4.24698C6.95595 4.28635 6.98011 4.33358 6.9919 4.3845C7.0037 4.43542 7.00277 4.48846 6.9892 4.53894C6.97563 4.58941 6.94984 4.63577 6.9141 4.67391H6.91569Z" fill="white"/>
</svg>
