<svg width="21" height="17" viewBox="0 0 21 17" fill="none" xmlns="http://www.w3.org/2000/svg">
<path d="M10.1568 0.00554029C9.0117 0.0863415 8.10783 1.0409 8.10783 2.20656L8.1068 4.37933L8.08584 4.38436C3.43432 5.34804 0 9.46985 0 14.3328C0 14.6862 0.0180703 15.0383 0.0538126 15.3875C0.13902 16.22 1.19883 16.5191 1.70677 15.8541L1.89849 15.6114C3.3962 13.7779 5.52855 12.5752 7.8877 12.2601L8.1068 12.2337L8.10783 14.7936C8.10783 15.2868 8.27327 15.7661 8.5777 16.1545C9.32946 17.1137 10.7164 17.2818 11.6756 16.53L19.7051 10.2366C19.8449 10.127 19.971 10.001 20.0806 9.86114C20.8323 8.90199 20.6642 7.51503 19.7051 6.76327L11.6756 0.469874C11.2872 0.165438 10.8079 0 10.3144 0L10.1568 0.00554029ZM10.3144 1.84735C10.3947 1.84735 10.4727 1.87429 10.536 1.92384L18.5655 8.21724C18.7216 8.33962 18.749 8.5654 18.6266 8.72154C18.6088 8.7443 18.5882 8.76483 18.5655 8.78267L10.536 15.0761C10.3798 15.1984 10.1541 15.1711 10.0317 15.0149C9.98211 14.9517 9.95518 14.8737 9.95518 14.7933L9.95415 11.2553C9.954 10.7394 9.53119 10.3236 9.0153 10.332L8.77602 10.336L8.42479 10.3529C6.09087 10.5019 3.91239 11.3661 2.14529 12.781L1.9664 12.9285L1.99083 12.7895C2.65056 9.28425 5.51612 6.52357 9.14251 6.08134C9.60587 6.02483 9.95424 5.6315 9.95437 5.16471L9.95518 2.20681C9.95518 2.00818 10.116 1.84735 10.3144 1.84735Z" fill="#99A2AD"/>
</svg>
