<svg width="26" height="26" viewBox="0 0 26 26" fill="none" xmlns="http://www.w3.org/2000/svg">
<path d="M23.3736 7.16423L18.8358 2.6254C18.6472 2.43669 18.4232 2.287 18.1767 2.18486C17.9302 2.08273 17.666 2.03017 17.3992 2.03017C17.1324 2.03017 16.8682 2.08273 16.6217 2.18486C16.3752 2.287 16.1512 2.43669 15.9626 2.6254L3.43891 15.1501C3.2496 15.3382 3.09951 15.5619 2.99735 15.8085C2.89519 16.055 2.84298 16.3193 2.84376 16.5862V21.125C2.84376 21.6637 3.05776 22.1804 3.4387 22.5613C3.81963 22.9422 4.33629 23.1563 4.87501 23.1563H9.41384C9.68068 23.157 9.94501 23.1047 10.1915 23.0026C10.438 22.9004 10.6618 22.7504 10.8499 22.5611L23.3736 10.0364C23.7544 9.6555 23.9683 9.13893 23.9683 8.60032C23.9683 8.0617 23.7544 7.54514 23.3736 7.16423ZM9.2422 20.7188H5.28126V16.7578L13.8125 8.22657L17.7734 12.1875L9.2422 20.7188ZM19.5 10.4609L15.5391 6.50001L17.4017 4.63735L21.3627 8.59829L19.5 10.4609Z" fill="#99A2AD"/>
</svg>
