<svg width="32" height="32" viewBox="0 0 32 32" fill="none" xmlns="http://www.w3.org/2000/svg">
<path d="M26.2857 0H5.71426C2.55991 0.00375 0.00375 2.55991 0 5.71426V26.2857C0.00375 29.44 2.55991 31.9962 5.71426 31.9999H26.2857C29.44 31.9962 31.9962 29.44 31.9999 26.2857V5.71426C31.9962 2.55991 29.44 0.00375 26.2857 0ZM21.7143 17.1428H17.1428V21.7143C17.1428 22.3455 16.6312 22.8572 16 22.8572C15.3688 22.8572 14.8571 22.3455 14.8571 21.7143V17.1428H10.2857C9.6545 17.1428 9.14283 16.6312 9.14283 16C9.14283 15.3688 9.6545 14.8571 10.2857 14.8571H14.8572V10.2857C14.8572 9.6545 15.3688 9.14283 16 9.14283C16.6312 9.14283 17.1428 9.6545 17.1428 10.2857V14.8572H21.7143C22.3455 14.8572 22.8572 15.3688 22.8572 16C22.8572 16.6312 22.3454 17.1428 21.7143 17.1428Z" fill="#99A2AD"/>
</svg>
