<svg width="40" height="40" viewBox="0 0 40 40" fill="none" xmlns="http://www.w3.org/2000/svg">
<path fill-rule="evenodd" clip-rule="evenodd" d="M10.404 14.8333C11.0352 16.7684 12.8543 18.1667 15.0001 18.1667C17.1458 18.1667 18.965 16.7684 19.5961 14.8333C24.1752 14.8333 28.7543 14.8333 33.3334 14.8333C34.1618 14.8333 34.8334 14.1618 34.8334 13.3333C34.8334 12.5049 34.1618 11.8333 33.3334 11.8333C28.7543 11.8333 24.1752 11.8333 19.5961 11.8333C19.5799 11.7827 19.6016 11.8502 19.5961 11.8333C18.965 9.89827 17.1458 8.5 15.0001 8.5C12.8543 8.5 11.0352 9.89827 10.404 11.8333C9.15827 11.8333 7.91251 11.8333 6.66675 11.8333C5.83832 11.8333 5.16675 12.5049 5.16675 13.3333C5.16675 14.1618 5.83832 14.8333 6.66675 14.8333C7.91251 14.8333 9.15827 14.8333 10.404 14.8333ZM15.0001 11.5C13.9876 11.5 13.1667 12.3208 13.1667 13.3333C13.1667 14.3459 13.9876 15.1667 15.0001 15.1667C16.0126 15.1667 16.8334 14.3459 16.8334 13.3333C16.8334 12.3208 16.0126 11.5 15.0001 11.5Z" fill="#0A66C2"/>
<path fill-rule="evenodd" clip-rule="evenodd" d="M5.16675 26.6667C5.16675 25.8382 5.83832 25.1667 6.66675 25.1667C11.2458 25.1667 15.8249 25.1667 20.404 25.1667C21.0352 23.2316 22.8543 21.8333 25.0001 21.8333C27.1458 21.8333 28.965 23.2316 29.5961 25.1667C29.5961 25.1667 32.4644 25.1667 33.3334 25.1667C34.1618 25.1667 34.8334 25.8382 34.8334 26.6667C34.8334 27.4951 34.1618 28.1667 33.3334 28.1667C32.963 28.1667 29.5961 28.1667 29.5961 28.1667C28.965 30.1017 27.1458 31.5 25.0001 31.5C22.8543 31.5 21.0352 30.1017 20.404 28.1667C15.8249 28.1667 11.2458 28.1667 6.66675 28.1667C5.83832 28.1667 5.16675 27.4951 5.16675 26.6667ZM23.1667 26.6667C23.1667 25.6541 23.9876 24.8333 25.0001 24.8333C26.0126 24.8333 26.8334 25.6541 26.8334 26.6667C26.8334 27.6792 26.0126 28.5 25.0001 28.5C23.9876 28.5 23.1667 27.6792 23.1667 26.6667Z" fill="#0A66C2"/>
<path d="M19.5961 11.8333C18.965 9.89827 17.1458 8.5 15.0001 8.5C12.8543 8.5 11.0352 9.89827 10.404 11.8333C9.15827 11.8333 7.91251 11.8333 6.66675 11.8333C5.83832 11.8333 5.16675 12.5049 5.16675 13.3333C5.16675 14.1618 5.83832 14.8333 6.66675 14.8333C7.91251 14.8333 9.15827 14.8333 10.404 14.8333C11.0352 16.7684 12.8543 18.1667 15.0001 18.1667C17.1458 18.1667 18.965 16.7684 19.5961 14.8333C24.1752 14.8333 28.7543 14.8333 33.3334 14.8333C34.1618 14.8333 34.8334 14.1618 34.8334 13.3333C34.8334 12.5049 34.1618 11.8333 33.3334 11.8333C28.7543 11.8333 24.1752 11.8333 19.5961 11.8333ZM19.5961 11.8333C19.6016 11.8502 19.5799 11.7827 19.5961 11.8333ZM13.1667 13.3333C13.1667 12.3208 13.9876 11.5 15.0001 11.5C16.0126 11.5 16.8334 12.3208 16.8334 13.3333C16.8334 14.3459 16.0126 15.1667 15.0001 15.1667C13.9876 15.1667 13.1667 14.3459 13.1667 13.3333ZM6.66675 25.1667C5.83832 25.1667 5.16675 25.8382 5.16675 26.6667C5.16675 27.4951 5.83832 28.1667 6.66675 28.1667C11.2458 28.1667 15.8249 28.1667 20.404 28.1667C21.0352 30.1017 22.8543 31.5 25.0001 31.5C27.1458 31.5 28.965 30.1017 29.5961 28.1667C29.5961 28.1667 32.963 28.1667 33.3334 28.1667C34.1618 28.1667 34.8334 27.4951 34.8334 26.6667C34.8334 25.8382 34.1618 25.1667 33.3334 25.1667C32.4644 25.1667 29.5961 25.1667 29.5961 25.1667C28.965 23.2316 27.1458 21.8333 25.0001 21.8333C22.8543 21.8333 21.0352 23.2316 20.404 25.1667C15.8249 25.1667 11.2458 25.1667 6.66675 25.1667ZM25.0001 24.8333C23.9876 24.8333 23.1667 25.6541 23.1667 26.6667C23.1667 27.6792 23.9876 28.5 25.0001 28.5C26.0126 28.5 26.8334 27.6792 26.8334 26.6667C26.8334 25.6541 26.0126 24.8333 25.0001 24.8333Z" stroke="#0A66C2" stroke-width="0.5"/>
</svg>
