<svg width="43" height="18" viewBox="0 0 43 18" fill="none" xmlns="http://www.w3.org/2000/svg">
<path d="M9 0C11.3869 0 13.6761 0.948212 15.364 2.63604C17.0518 4.32387 18 6.61305 18 9C18 11.3869 17.0518 13.6761 15.364 15.364C13.6761 17.0518 11.3869 18 9 18C6.61305 18 4.32387 17.0518 2.63604 15.364C0.948212 13.6761 0 11.3869 0 9C0 6.61305 0.948212 4.32387 2.63604 2.63604C4.32387 0.948212 6.61305 0 9 0V0Z" fill="white"/>
<path d="M9 16.875C13.3492 16.875 16.875 13.3492 16.875 9C16.875 4.65076 13.3492 1.125 9 1.125C4.65076 1.125 1.125 4.65076 1.125 9C1.125 13.3492 4.65076 16.875 9 16.875Z" fill="#378FE9"/>
<path fill-rule="evenodd" clip-rule="evenodd" d="M13.4213 8.15626H12.8025C12.7463 8.15626 12.6338 7.94251 12.3525 7.63876C11.9363 7.18876 11.475 6.61501 11.1488 6.30001C10.3381 5.5985 9.67636 4.74163 9.20252 3.78001C8.93252 3.20626 8.91002 2.94751 8.35877 2.94751C8.14215 2.97811 7.94477 3.08852 7.80533 3.25709C7.66589 3.42566 7.59445 3.64025 7.60502 3.85876C7.60502 4.01626 7.68377 4.56751 7.71752 4.75876C7.95701 5.63888 8.33689 6.47461 8.84252 7.23376H4.63502C4.49797 7.23279 4.3622 7.26028 4.23633 7.31451C4.11046 7.36873 3.99721 7.4485 3.90377 7.54876C3.80987 7.64669 3.73815 7.7637 3.6935 7.89182C3.64885 8.01994 3.63232 8.15618 3.64502 8.29126C3.66236 8.55484 3.78091 8.80152 3.97589 8.97973C4.17087 9.15794 4.42719 9.25388 4.69127 9.24751H4.87127C4.63831 9.2561 4.41725 9.35256 4.25252 9.51751C4.09768 9.68153 4.01292 9.89947 4.01627 10.125C4.01822 10.3517 4.1046 10.5695 4.25854 10.7359C4.41247 10.9024 4.62292 11.0054 4.84877 11.025C4.71129 11.1302 4.60706 11.2728 4.54857 11.4357C4.49008 11.5986 4.47981 11.7749 4.519 11.9435C4.55818 12.1121 4.64515 12.2659 4.76949 12.3863C4.89382 12.5067 5.05025 12.5887 5.22002 12.6225C5.10914 12.8085 5.07295 13.0296 5.11877 13.2413C5.1781 13.4481 5.30392 13.6296 5.47678 13.7577C5.64963 13.8858 5.85989 13.9534 6.07502 13.95H8.65127C8.98873 13.9484 9.32482 13.9069 9.65252 13.8263L11.25 13.3763H13.3875C14.535 13.3313 14.8388 8.15626 13.4213 8.15626Z" fill="#D0E8FF"/>
<path d="M8.35876 7.23379H4.62377C4.48157 7.23247 4.34077 7.26178 4.21092 7.31975C4.08108 7.37772 3.96524 7.46298 3.87131 7.56973C3.77737 7.67648 3.70753 7.80221 3.66654 7.93837C3.62555 8.07453 3.61437 8.21793 3.63377 8.35879C3.65648 8.61936 3.77701 8.86166 3.97111 9.03698C4.16521 9.2123 4.41849 9.30763 4.68002 9.30379H4.86002C4.62706 9.31238 4.40599 9.40885 4.24127 9.57379C4.16186 9.65774 4.10005 9.75672 4.05947 9.86492C4.0189 9.97311 4.00038 10.0883 4.00502 10.2038C4.00915 10.431 4.09598 10.6488 4.24923 10.8166C4.40248 10.9843 4.61164 11.0904 4.83752 11.115C4.72993 11.1994 4.64272 11.307 4.58235 11.4297C4.52198 11.5524 4.49 11.6871 4.48877 11.8238C4.48721 12.0354 4.55933 12.2409 4.69276 12.4051C4.82618 12.5693 5.0126 12.682 5.22002 12.7238C5.1084 12.9136 5.07226 13.1385 5.11877 13.3538C5.17846 13.5595 5.30473 13.7396 5.47779 13.8658C5.65084 13.9921 5.8609 14.0573 6.07502 14.0513H8.65126C8.98873 14.0497 9.32482 14.0082 9.65251 13.9275L11.25 13.3988H13.3875C14.5125 13.3988 14.8163 8.17879 13.3875 8.17879C13.1814 8.19015 12.9749 8.19015 12.7688 8.17879C12.7688 8.17879 12.6 7.96504 12.3188 7.66129C11.9025 7.21129 11.4413 6.63754 11.115 6.32254C10.3142 5.61558 9.66383 4.75475 9.20252 3.79129C9.11109 3.58009 8.98986 3.38309 8.84251 3.20629C8.65515 3.04872 8.41339 2.97104 8.1693 2.98998C7.92522 3.00892 7.69834 3.12296 7.53751 3.30754C7.42093 3.43363 7.32591 3.57807 7.25626 3.73504C7.21226 3.84421 7.17837 3.95718 7.15502 4.07254C7.12483 4.38972 7.1515 4.70974 7.23377 5.01754C7.3009 5.34251 7.40273 5.65933 7.53751 5.96254C7.75066 6.35912 7.99917 6.73565 8.28001 7.08754C8.31473 7.10893 8.34217 7.1403 8.35876 7.17754" stroke="#004182" stroke-width="1.125" stroke-linecap="round" stroke-linejoin="round"/>
<path d="M21 16.875C25.3492 16.875 28.875 13.3492 28.875 9C28.875 4.65076 25.3492 1.125 21 1.125C16.6508 1.125 13.125 4.65076 13.125 9C13.125 13.3492 16.6508 16.875 21 16.875Z" fill="#F5BB5C"/>
<path fill-rule="evenodd" clip-rule="evenodd" d="M21.9224 15.0751H20.1224C19.9613 15.0751 19.8068 15.0111 19.6928 14.8971C19.5789 14.7832 19.5149 14.6287 19.5149 14.4676V12.9713H22.5299V14.4676C22.5299 14.6287 22.4659 14.7832 22.352 14.8971C22.238 15.0111 22.0835 15.0751 21.9224 15.0751Z" fill="#FFE1B2"/>
<path fill-rule="evenodd" clip-rule="evenodd" d="M19.5264 13.2638V12.9713C19.5289 12.5889 19.468 12.2088 19.3464 11.8463C19.1886 11.5279 18.988 11.2327 18.7501 10.9688C18.3345 10.6292 17.999 10.2021 17.7676 9.71781C17.5362 9.23358 17.4145 8.70421 17.4114 8.16752C17.4114 7.20976 17.7918 6.29123 18.4691 5.61398C19.1463 4.93674 20.0649 4.55627 21.0226 4.55627C21.9804 4.55627 22.8989 4.93674 23.5762 5.61398C24.2534 6.29123 24.6339 7.20976 24.6339 8.16752C24.6228 8.7154 24.4933 9.2544 24.2545 9.7476C24.0157 10.2408 23.6731 10.6766 23.2501 11.025C23.3289 10.9688 23.1601 11.0925 23.0476 11.25C22.9348 11.412 22.8475 11.5903 22.7889 11.7788C22.6764 12.1432 22.6195 12.5224 22.6201 12.9038V13.1963" fill="#FCF0DE"/>
<path d="M20.3926 5.37756C19.8687 5.46828 19.3877 5.72457 19.0201 6.10881C18.6363 6.48159 18.3703 6.95881 18.2551 7.48131" stroke="white" stroke-width="2.25" stroke-linecap="round" stroke-linejoin="round"/>
<path d="M21.9224 15.0751H20.1224C19.9613 15.0751 19.8068 15.0111 19.6928 14.8971C19.5789 14.7832 19.5149 14.6287 19.5149 14.4676V12.9713H22.5299V14.4676C22.5299 14.6287 22.4659 14.7832 22.352 14.8971C22.238 15.0111 22.0835 15.0751 21.9224 15.0751V15.0751Z" stroke="#5D3B01" stroke-width="1.125" stroke-linecap="round" stroke-linejoin="round"/>
<path d="M21 1.6875V3.105M19.515 13.2637V12.9712C19.5157 12.5899 19.4588 12.2106 19.3463 11.8462C19.273 11.6576 19.1746 11.4798 19.0538 11.3175C18.9335 11.1412 18.7939 10.979 18.6375 10.8337C18.4875 10.6987 18.3483 10.552 18.2213 10.395C17.6996 9.76104 17.4134 8.96603 17.4113 8.145V8.145C17.4113 7.18724 17.7918 6.2687 18.469 5.59146C19.1463 4.91422 20.0648 4.53375 21.0225 4.53375C21.9803 4.53375 22.8988 4.91422 23.5761 5.59146C24.2533 6.2687 24.6338 7.18724 24.6338 8.145C24.6204 8.96593 24.3312 9.75848 23.8125 10.395C23.6219 10.6307 23.407 10.8456 23.1713 11.0362L22.9463 11.2725C22.8369 11.4349 22.7534 11.6132 22.6988 11.8012C22.5863 12.1656 22.5294 12.5449 22.53 12.9262V13.2187L19.515 13.2637ZM17.175 2.97L17.8613 3.85875L17.175 2.97ZM24.8475 2.95875L24.1613 3.85875L24.8475 2.95875Z" stroke="#5D3B01" stroke-width="1.125" stroke-linecap="round" stroke-linejoin="round"/>
<path d="M21 1.125C22.5575 1.125 24.0801 1.58686 25.3751 2.45218C26.6702 3.3175 27.6795 4.5474 28.2756 5.98637C28.8716 7.42534 29.0276 9.00874 28.7237 10.5363C28.4198 12.0639 27.6698 13.4671 26.5685 14.5685C25.4671 15.6698 24.064 16.4198 22.5364 16.7237C21.0088 17.0275 19.4254 16.8716 17.9864 16.2756C16.5474 15.6795 15.3175 14.6702 14.4522 13.3751C13.5869 12.0801 13.125 10.5575 13.125 9C13.125 6.91142 13.9547 4.90839 15.4316 3.43154C16.9084 1.95469 18.9114 1.125 21 1.125ZM21 2.78279e-06C18.9179 0.00164004 16.9008 0.725138 15.2923 2.04723C13.6838 3.36933 12.5835 5.20822 12.1787 7.25062C11.774 9.29302 12.09 11.4126 13.0728 13.2481C14.0556 15.0837 15.6444 16.5217 17.5685 17.3172C19.4927 18.1127 21.6331 18.2165 23.6252 17.6108C25.6173 17.0051 27.3377 15.7275 28.4934 13.9955C29.6491 12.2636 30.1685 10.1846 29.9632 8.11261C29.7579 6.04065 28.8406 4.10396 27.3675 2.6325C26.5311 1.79699 25.5382 1.13447 24.4457 0.682775C23.3531 0.231082 22.1823 -0.000926873 21 2.78279e-06Z" fill="white"/>
<path d="M33.0071 1.125C35.0957 1.125 37.0987 1.95468 38.5755 3.43153C40.0524 4.90838 40.8821 6.91142 40.8821 9C40.8821 11.0886 40.0524 13.0916 38.5755 14.5685C37.0987 16.0453 35.0957 16.875 33.0071 16.875C30.9185 16.875 28.9155 16.0453 27.4386 14.5685C25.9618 13.0916 25.1321 11.0886 25.1321 9C25.1321 6.91142 25.9618 4.90838 27.4386 3.43153C28.9155 1.95468 30.9185 1.125 33.0071 1.125Z" fill="#D8D8D8"/>
<path d="M33.0071 16.875C37.3563 16.875 40.8821 13.3492 40.8821 9C40.8821 4.65076 37.3563 1.125 33.0071 1.125C28.6578 1.125 25.1321 4.65076 25.1321 9C25.1321 13.3492 28.6578 16.875 33.0071 16.875Z" fill="#6DAE4F"/>
<path d="M33.0071 1.125C34.5646 1.125 36.0872 1.58686 37.3822 2.45218C38.6772 3.3175 39.6866 4.5474 40.2826 5.98637C40.8787 7.42534 41.0346 9.00874 40.7308 10.5363C40.4269 12.0639 39.6769 13.4671 38.5756 14.5685C37.4742 15.6698 36.071 16.4198 34.5434 16.7237C33.0158 17.0275 31.4324 16.8716 29.9935 16.2756C28.5545 15.6795 27.3246 14.6702 26.4593 13.3751C25.594 12.0801 25.1321 10.5575 25.1321 9C25.1321 6.91142 25.9618 4.90839 27.4386 3.43154C28.9155 1.95469 30.9185 1.125 33.0071 1.125ZM33.0071 2.78279e-06C30.925 0.00164004 28.9079 0.725138 27.2994 2.04723C25.6909 3.36933 24.5905 5.20822 24.1858 7.25062C23.7811 9.29302 24.0971 11.4126 25.0799 13.2481C26.0626 15.0837 27.6515 16.5217 29.5756 17.3172C31.4998 18.1127 33.6402 18.2165 35.6323 17.6108C37.6243 17.0051 39.3448 15.7275 40.5005 13.9955C41.6562 12.2636 42.1756 10.1846 41.9703 8.11261C41.765 6.04065 40.8477 4.10396 39.3746 2.6325C38.5382 1.79699 37.5453 1.13447 36.4527 0.682775C35.3602 0.231082 34.1893 -0.000926873 33.0071 2.78279e-06Z" fill="white"/>
<path d="M37.6533 10.3726C37.6304 9.48882 37.4943 8.61167 37.2483 7.76256C36.5628 7.20095 36.0451 6.46142 35.7521 5.62506C35.5721 5.02881 35.4483 4.81506 34.9196 4.80381C34.7046 4.8293 34.508 4.93753 34.3715 5.10555C34.2349 5.27357 34.1692 5.48816 34.1883 5.70381C34.1883 5.97381 34.1883 6.25506 34.2558 6.51381C34.41 7.25144 34.6283 7.97419 34.9083 8.67381L29.8458 4.87131C29.7614 4.78905 29.6606 4.7254 29.5501 4.68447C29.4395 4.64353 29.3216 4.62621 29.204 4.63363C29.0863 4.64105 28.9715 4.67304 28.867 4.72754C28.7625 4.78204 28.6705 4.85785 28.5971 4.95006C28.5428 5.04378 28.5076 5.14732 28.4934 5.2547C28.4793 5.36209 28.4866 5.4712 28.5148 5.57577C28.5431 5.68033 28.5917 5.77828 28.6579 5.86397C28.7242 5.94966 28.8067 6.0214 28.9008 6.07506L31.4321 7.98756L32.0958 8.61756L28.0796 5.62506C27.9709 5.51743 27.8336 5.44325 27.6841 5.41135C27.5345 5.37944 27.3789 5.39114 27.2358 5.44506C27.0915 5.49576 26.9655 5.58794 26.8734 5.71003C26.7813 5.83211 26.7274 5.97867 26.7183 6.13131C26.7074 6.28242 26.7397 6.43353 26.8114 6.56699C26.8831 6.70045 26.9913 6.81077 27.1233 6.88506L29.6321 8.74131L31.1508 9.86631L27.8883 7.40256C27.8023 7.32282 27.7014 7.26089 27.5913 7.22034C27.4812 7.17979 27.3642 7.16143 27.2471 7.16631C27.011 7.18723 26.7927 7.30042 26.6396 7.48131C26.2908 7.93131 26.5721 8.39256 26.9321 8.67381L29.4633 10.5751L30.7571 11.5313L28.2033 9.61881C28.1253 9.53391 28.0306 9.46613 27.925 9.41976C27.8195 9.3734 27.7055 9.34946 27.5902 9.34946C27.4749 9.34946 27.3609 9.3734 27.2553 9.41976C27.1498 9.46613 27.055 9.53391 26.9771 9.61881C26.9097 9.71561 26.8631 9.8253 26.8402 9.94097C26.8173 10.0566 26.8185 10.1758 26.8439 10.291C26.8693 10.4061 26.9182 10.5148 26.9875 10.6102C27.0569 10.7055 27.1453 10.7855 27.2471 10.8451L31.8596 14.2201C32.5346 14.7263 34.1883 15.1651 34.9196 14.5238" stroke="#057642" stroke-width="1.6875" stroke-linecap="round" stroke-linejoin="round"/>
<path fill-rule="evenodd" clip-rule="evenodd" d="M38.1934 11.1375L37.7209 10.7213C37.6638 9.89262 37.4699 9.07912 37.1471 8.31378C36.4873 7.53768 36.0208 6.61625 35.7859 5.62503C35.6059 5.02878 35.4821 4.81503 34.9534 4.80378C34.7384 4.82927 34.5418 4.9375 34.4053 5.10552C34.2687 5.27354 34.203 5.48813 34.2221 5.70378C34.2221 5.97378 34.2221 6.25503 34.2896 6.51378C34.4204 7.22412 34.6279 7.91818 34.9084 8.58378L34.6946 8.47128L29.8459 4.74753C29.7614 4.66527 29.6607 4.60162 29.5501 4.56069C29.4396 4.51975 29.3217 4.50243 29.204 4.50985C29.0864 4.51727 28.9716 4.54926 28.867 4.60376C28.7625 4.65827 28.6706 4.73407 28.5971 4.82628C28.5325 4.92269 28.4891 5.03169 28.4697 5.1461C28.4503 5.26051 28.4554 5.37773 28.4846 5.49003C28.5113 5.60314 28.5624 5.70906 28.6343 5.80038C28.7062 5.89171 28.7972 5.96624 28.9009 6.01878L31.3759 7.87503L32.0959 8.44878L28.0796 5.44503C27.9955 5.36252 27.8949 5.2988 27.7843 5.25808C27.6738 5.21735 27.5559 5.20055 27.4384 5.20878C27.3219 5.21587 27.208 5.24644 27.1036 5.29863C26.9992 5.35083 26.9064 5.42359 26.8309 5.51253C26.7688 5.61006 26.7268 5.71904 26.7075 5.83303C26.6882 5.94703 26.6919 6.06374 26.7184 6.17628C26.74 6.29565 26.7874 6.40885 26.8574 6.50795C26.9274 6.60706 27.0181 6.68968 27.1234 6.75003L29.6321 8.61753L31.1509 9.74253L27.8884 7.29003C27.8048 7.20609 27.7046 7.14067 27.5941 7.09802C27.4836 7.05538 27.3654 7.03647 27.2471 7.04253C27.1296 7.05037 27.015 7.0824 26.9105 7.1366C26.8059 7.19081 26.7137 7.26602 26.6396 7.35753C26.5737 7.45302 26.5289 7.56138 26.5079 7.67548C26.4869 7.78957 26.4904 7.90681 26.518 8.01948C26.5457 8.13214 26.5969 8.23767 26.6682 8.32912C26.7396 8.42057 26.8295 8.49586 26.9321 8.55003L29.4634 10.4513L30.7571 11.4075L28.2034 9.50628C28.1275 9.41937 28.0342 9.3494 27.9296 9.30095C27.8249 9.25249 27.7112 9.22662 27.5959 9.22503C27.4791 9.22777 27.3641 9.2541 27.2577 9.30244C27.1514 9.35077 27.056 9.42011 26.9771 9.50628C26.9082 9.60159 26.8604 9.71042 26.8366 9.82558C26.8128 9.94074 26.8137 10.0596 26.8392 10.1744C26.8647 10.2892 26.9143 10.3973 26.9846 10.4915C27.0549 10.5858 27.1444 10.6641 27.2471 10.7213L31.8821 14.22C32.2117 14.4714 32.5897 14.6521 32.9923 14.7508C33.3949 14.8495 33.8136 14.8642 34.2221 14.7938C34.449 14.9698 34.728 15.0654 35.0152 15.0654C35.3024 15.0654 35.5815 14.9698 35.8084 14.7938C36.4834 14.2763 36.2696 14.22 36.7646 13.5225C37.3296 12.7842 37.8089 11.984 38.1934 11.1375Z" fill="#DCF0CB"/>
<path d="M37.6533 10.3726C37.6304 9.48882 37.4943 8.61167 37.2483 7.76256C36.5628 7.20095 36.0451 6.46142 35.7521 5.62506C35.5721 5.02881 35.4483 4.81506 34.9196 4.80381C34.7046 4.8293 34.508 4.93753 34.3715 5.10555C34.2349 5.27357 34.1692 5.48816 34.1883 5.70381C34.1883 5.97381 34.1883 6.25506 34.2558 6.51381C34.41 7.25144 34.6283 7.97419 34.9083 8.67381L29.8458 4.87131C29.7614 4.78905 29.6606 4.7254 29.5501 4.68447C29.4395 4.64353 29.3216 4.62621 29.204 4.63363C29.0863 4.64105 28.9715 4.67304 28.867 4.72754C28.7625 4.78204 28.6705 4.85785 28.5971 4.95006C28.5428 5.04378 28.5076 5.14732 28.4934 5.2547C28.4793 5.36209 28.4866 5.4712 28.5148 5.57577C28.5431 5.68033 28.5917 5.77828 28.6579 5.86397C28.7242 5.94966 28.8067 6.0214 28.9008 6.07506L31.4321 7.98756L32.0958 8.61756L28.0796 5.62506C27.9709 5.51743 27.8336 5.44325 27.6841 5.41135C27.5345 5.37944 27.3789 5.39114 27.2358 5.44506C27.0915 5.49576 26.9655 5.58794 26.8734 5.71003C26.7813 5.83211 26.7274 5.97867 26.7183 6.13131C26.7074 6.28242 26.7397 6.43353 26.8114 6.56699C26.8831 6.70045 26.9913 6.81077 27.1233 6.88506L29.6321 8.74131L31.1508 9.86631L27.8883 7.40256C27.8023 7.32282 27.7014 7.26089 27.5913 7.22034C27.4812 7.17979 27.3642 7.16143 27.2471 7.16631C27.011 7.18723 26.7927 7.30042 26.6396 7.48131C26.2908 7.93131 26.5721 8.39256 26.9321 8.67381L29.4633 10.5751L30.7571 11.5313L28.2033 9.61881C28.1253 9.53391 28.0306 9.46613 27.925 9.41976C27.8195 9.3734 27.7055 9.34946 27.5902 9.34946C27.4749 9.34946 27.3609 9.3734 27.2553 9.41976C27.1498 9.46613 27.055 9.53391 26.9771 9.61881C26.9097 9.71561 26.8631 9.82529 26.8402 9.94097C26.8173 10.0566 26.8185 10.1758 26.8439 10.291C26.8693 10.4061 26.9182 10.5148 26.9875 10.6102C27.0569 10.7055 27.1453 10.7855 27.2471 10.8451L31.8596 14.2201C32.7793 14.7723 33.8513 15.0167 34.9196 14.9176" stroke="#057642" stroke-width="0.5625" stroke-linecap="round" stroke-linejoin="round"/>
<path d="M40.6232 12.8138C40.3964 12.5697 40.2205 12.2829 40.1057 11.97C40.0903 11.7234 40.0527 11.4787 39.9932 11.2388C39.9581 10.8071 39.8191 10.3902 39.5882 10.0238C38.9342 9.24814 38.4683 8.33178 38.227 7.34628C38.047 6.75003 37.9232 6.53628 37.3945 6.52503C37.1757 6.54453 36.9736 6.64966 36.832 6.81753C36.7652 6.90268 36.7159 7.00019 36.687 7.10444C36.658 7.2087 36.6499 7.31765 36.6632 7.42503C36.6633 7.69643 36.6859 7.96736 36.7307 8.23503C36.9332 9.27003 37.147 10.125 37.1695 10.1813L32.3432 6.57003C32.2593 6.48666 32.1589 6.42161 32.0486 6.37901C31.9382 6.3364 31.8202 6.31717 31.702 6.32253C31.5829 6.32887 31.4668 6.36139 31.3618 6.41778C31.2568 6.47418 31.1655 6.55305 31.0945 6.64878C31.0397 6.74183 31.0039 6.84477 30.9889 6.95169C30.974 7.05862 30.9803 7.16744 31.0075 7.27193C31.0346 7.37642 31.0821 7.47453 31.1472 7.56065C31.2124 7.64676 31.2938 7.71919 31.387 7.77378L33.9182 9.68628L34.6832 10.3163L30.6332 7.26753C30.5493 7.18416 30.4489 7.11911 30.3386 7.07651C30.2282 7.0339 30.1102 7.01467 29.992 7.02003C29.8138 7.02187 29.6414 7.08323 29.5021 7.19433C29.3628 7.30544 29.2647 7.45992 29.2233 7.63321C29.1819 7.8065 29.1997 7.98865 29.2737 8.1507C29.3478 8.31275 29.4739 8.44539 29.632 8.52753L32.1632 10.44L33.682 11.565L30.4307 9.10128C30.3474 9.01823 30.2472 8.95406 30.1369 8.9131C30.0266 8.87214 29.9088 8.85537 29.7914 8.8639C29.6741 8.87243 29.56 8.90608 29.4567 8.96256C29.3535 9.01905 29.2637 9.09705 29.1932 9.19128C28.8445 9.64128 29.1145 10.1025 29.4857 10.3838L32.017 12.2738L33.277 13.23L30.757 11.3175C30.606 11.1718 30.4043 11.0904 30.1945 11.0904C29.9846 11.0904 29.783 11.1718 29.632 11.3175C29.5593 11.408 29.5075 11.5134 29.4802 11.6262C29.453 11.739 29.451 11.8564 29.4745 11.97C29.4965 12.0834 29.5419 12.191 29.6077 12.2859C29.6736 12.3808 29.7585 12.461 29.857 12.5213L34.357 15.8963C34.7324 16.1781 35.1672 16.3705 35.6282 16.4588L36.2807 16.56C36.6244 16.607 36.9563 16.7176 37.2595 16.8863C37.4766 16.9705 37.7173 16.9705 37.9345 16.8863C38.7241 16.6044 39.4156 16.1004 39.9257 15.435C40.3963 14.7749 40.6694 13.9945 40.7132 13.185C40.7467 13.0293 40.7467 12.8683 40.7132 12.7125L40.6232 12.8138Z" stroke="#057642" stroke-width="1.6875" stroke-linecap="round" stroke-linejoin="round"/>
<path fill-rule="evenodd" clip-rule="evenodd" d="M40.6683 12.7575L40.1621 12.375C40.1075 11.546 39.9135 10.7321 39.5883 9.96752C38.9343 9.19188 38.4684 8.27551 38.2271 7.29002C38.0471 6.69377 37.9233 6.48002 37.3946 6.46877C37.1758 6.48826 36.9737 6.59339 36.8321 6.76127C36.7653 6.84642 36.716 6.94392 36.6871 7.04818C36.6581 7.15243 36.65 7.26138 36.6633 7.36877C36.6634 7.64017 36.686 7.91109 36.7308 8.17877C36.9333 9.22502 37.1471 10.08 37.1696 10.125L32.3433 6.51377C32.2589 6.43151 32.1581 6.36786 32.0476 6.32692C31.937 6.28598 31.8191 6.26867 31.7015 6.27609C31.5838 6.28351 31.469 6.3155 31.3645 6.37C31.26 6.4245 31.168 6.5003 31.0946 6.59252C30.7458 7.05377 31.0271 7.50377 31.3871 7.78502L33.9183 9.68627L34.6833 10.3163L30.6333 7.21127C30.5489 7.12901 30.4481 7.06536 30.3376 7.02442C30.227 6.98348 30.1091 6.96617 29.9915 6.97359C29.8738 6.98101 29.759 7.013 29.6545 7.0675C29.55 7.122 29.458 7.1978 29.3846 7.29002C29.0358 7.74002 29.3171 8.20127 29.6771 8.48252L32.2083 10.3838L33.7271 11.5088L30.4308 9.00002C30.3476 8.91629 30.2471 8.85176 30.1363 8.81096C30.0256 8.77015 29.9072 8.75404 29.7896 8.76377C29.6731 8.76885 29.5591 8.79974 29.456 8.85422C29.3529 8.90869 29.2632 8.98539 29.1933 9.07877C29.1243 9.1731 29.0764 9.28128 29.0531 9.39585C29.0298 9.51043 29.0316 9.62869 29.0583 9.74252C29.0884 9.85577 29.142 9.96141 29.2156 10.0525C29.2893 10.1436 29.3814 10.2182 29.4858 10.2713L32.0171 12.1725L33.2771 13.1288L30.7571 11.25C30.6838 11.1752 30.5962 11.1157 30.4996 11.0751C30.4031 11.0346 30.2993 11.0137 30.1946 11.0137C30.0898 11.0137 29.9861 11.0346 29.8895 11.0751C29.7929 11.1157 29.7054 11.1752 29.6321 11.25C29.5529 11.3415 29.4956 11.4499 29.4644 11.5668C29.4332 11.6837 29.429 11.8062 29.4521 11.925C29.4722 12.0449 29.5191 12.1587 29.5892 12.2581C29.6593 12.3574 29.7508 12.4397 29.8571 12.4988L34.3571 15.8738C35.0399 16.2793 35.8134 16.5075 36.6071 16.5375C36.8964 16.7113 37.1971 16.8654 37.5071 16.9988C38.4092 16.8275 39.2131 16.3211 39.7571 15.5813C40.3433 14.7268 40.6785 13.7252 40.7246 12.69L40.6683 12.7575Z" fill="#DDF6D1"/>
<path d="M40.6232 12.8138C40.3964 12.5697 40.2205 12.2829 40.1057 11.97C40.0903 11.7234 40.0527 11.4787 39.9932 11.2388C39.9581 10.8071 39.8191 10.3902 39.5882 10.0238C38.9342 9.24814 38.4683 8.33178 38.227 7.34628C38.047 6.75003 37.9232 6.53628 37.3945 6.52503C37.1757 6.54453 36.9736 6.64966 36.832 6.81753C36.7652 6.90268 36.7159 7.00019 36.687 7.10444C36.658 7.2087 36.6499 7.31765 36.6632 7.42503C36.6633 7.69643 36.6859 7.96736 36.7307 8.23503C36.9332 9.27003 37.147 10.125 37.1695 10.1813L32.3432 6.57003C32.2593 6.48666 32.1589 6.42161 32.0486 6.37901C31.9382 6.3364 31.8202 6.31717 31.702 6.32253C31.5829 6.32887 31.4668 6.36139 31.3618 6.41778C31.2568 6.47418 31.1655 6.55305 31.0945 6.64878C31.0397 6.74183 31.0039 6.84477 30.9889 6.95169C30.974 7.05862 30.9803 7.16744 31.0075 7.27193C31.0346 7.37642 31.0821 7.47453 31.1472 7.56065C31.2124 7.64676 31.2938 7.71919 31.387 7.77378L33.9182 9.68628L34.6832 10.3163L30.6332 7.26753C30.5493 7.18416 30.4489 7.11911 30.3386 7.07651C30.2282 7.0339 30.1102 7.01467 29.992 7.02003C29.8138 7.02187 29.6414 7.08323 29.5021 7.19433C29.3628 7.30544 29.2647 7.45992 29.2233 7.63321C29.1819 7.8065 29.1997 7.98865 29.2737 8.1507C29.3478 8.31275 29.4739 8.44539 29.632 8.52753L32.1632 10.44L33.682 11.565L30.4307 9.10128C30.3474 9.01823 30.2472 8.95406 30.1369 8.9131C30.0266 8.87214 29.9088 8.85537 29.7914 8.8639C29.6741 8.87243 29.56 8.90608 29.4567 8.96256C29.3535 9.01905 29.2637 9.09705 29.1932 9.19128C28.8445 9.64128 29.1145 10.1025 29.4857 10.3838L32.017 12.2738L33.277 13.23L30.757 11.3175C30.606 11.1718 30.4043 11.0904 30.1945 11.0904C29.9846 11.0904 29.783 11.1718 29.632 11.3175C29.5593 11.408 29.5075 11.5134 29.4802 11.6262C29.453 11.739 29.451 11.8564 29.4745 11.97C29.4965 12.0834 29.5419 12.191 29.6077 12.2859C29.6736 12.3808 29.7585 12.461 29.857 12.5213L34.357 15.8963C34.7324 16.1781 35.1672 16.3705 35.6282 16.4588L36.2807 16.56C36.6244 16.607 36.9563 16.7176 37.2595 16.8863C37.4766 16.9705 37.7173 16.9705 37.9345 16.8863C38.7241 16.6044 39.4156 16.1004 39.9257 15.435C40.3963 14.7749 40.6694 13.9945 40.7132 13.185C40.7467 13.0293 40.7467 12.8683 40.7132 12.7125L40.6232 12.8138Z" stroke="#057642" stroke-width="0.5625" stroke-linecap="round" stroke-linejoin="round"/>
<path d="M33.9409 3.17249L33.1196 4.20749" stroke="#057642" stroke-width="1.125" stroke-linecap="round" stroke-linejoin="round"/>
<path d="M30.1833 1.82251L30.2621 3.17251" stroke="#057642" stroke-width="1.125" stroke-linecap="round" stroke-linejoin="round"/>
<path d="M32.4896 1.83374L31.7583 3.58874" stroke="#057642" stroke-width="1.125" stroke-linecap="round" stroke-linejoin="round"/>
</svg>
