<svg width="20" height="20" viewBox="0 0 20 20" fill="none" xmlns="http://www.w3.org/2000/svg">
<path d="M18.3852 9.11876L10.8813 1.61407C10.6471 1.38126 10.3302 1.25058 10 1.25058C9.66977 1.25058 9.35296 1.38126 9.11876 1.61407L1.61876 9.11876C1.38594 9.35296 1.25526 9.66978 1.25526 10C1.25526 10.3302 1.38594 10.6471 1.61876 10.8813L9.12266 18.3859C9.35686 18.6188 9.67368 18.7494 10.0039 18.7494C10.3341 18.7494 10.651 18.6188 10.8852 18.3859L18.3891 10.8813C18.6219 10.6471 18.7526 10.3302 18.7526 10C18.7526 9.66978 18.6219 9.35296 18.3891 9.11876H18.3852ZM9.37501 6.25001C9.37501 6.08425 9.44085 5.92528 9.55806 5.80807C9.67527 5.69086 9.83425 5.62501 10 5.62501C10.1658 5.62501 10.3247 5.69086 10.4419 5.80807C10.5592 5.92528 10.625 6.08425 10.625 6.25001V10.625C10.625 10.7908 10.5592 10.9497 10.4419 11.067C10.3247 11.1842 10.1658 11.25 10 11.25C9.83425 11.25 9.67527 11.1842 9.55806 11.067C9.44085 10.9497 9.37501 10.7908 9.37501 10.625V6.25001ZM10 14.375C9.81459 14.375 9.63333 14.32 9.47916 14.217C9.32499 14.114 9.20483 13.9676 9.13387 13.7963C9.06291 13.625 9.04435 13.4365 9.08052 13.2546C9.11669 13.0728 9.20598 12.9057 9.33709 12.7746C9.46821 12.6435 9.63525 12.5542 9.81711 12.518C9.99897 12.4818 10.1875 12.5004 10.3588 12.5714C10.5301 12.6423 10.6765 12.7625 10.7795 12.9167C10.8825 13.0708 10.9375 13.2521 10.9375 13.4375C10.9375 13.6861 10.8387 13.9246 10.6629 14.1004C10.4871 14.2762 10.2486 14.375 10 14.375Z" fill="#99A2AD"/>
</svg>
