<svg width="24" height="23" viewBox="0 0 24 23" fill="none" xmlns="http://www.w3.org/2000/svg">
<path d="M15.5799 11.5002C15.5799 13.3977 13.9799 14.931 11.9999 14.931C10.0199 14.931 8.41992 13.3977 8.41992 11.5002C8.41992 9.60267 10.0199 8.06934 11.9999 8.06934C13.9799 8.06934 15.5799 9.60267 15.5799 11.5002Z" stroke="#70747E" stroke-width="1.5" stroke-linecap="round" stroke-linejoin="round"/>
<path d="M11.9998 19.4254C15.5298 19.4254 18.8198 17.432 21.1098 13.982C22.0098 12.6308 22.0098 10.3595 21.1098 9.00827C18.8198 5.55827 15.5298 3.56494 11.9998 3.56494C8.46984 3.56494 5.17984 5.55827 2.88984 9.00827C1.98984 10.3595 1.98984 12.6308 2.88984 13.982C5.17984 17.432 8.46984 19.4254 11.9998 19.4254Z" stroke="#70747E" stroke-width="1.5" stroke-linecap="round" stroke-linejoin="round"/>
</svg>
