<svg width="10" height="10" viewBox="0 0 10 10" fill="none" xmlns="http://www.w3.org/2000/svg">
<path d="M5 0C4.01109 0 3.0444 0.293245 2.22215 0.842652C1.3999 1.39206 0.759043 2.17295 0.380604 3.08658C0.00216642 4.00021 -0.0968502 5.00555 0.0960758 5.97545C0.289002 6.94535 0.765206 7.83627 1.46447 8.53553C2.16373 9.23479 3.05465 9.711 4.02455 9.90392C4.99445 10.0969 5.99979 9.99783 6.91342 9.61939C7.82705 9.24096 8.60794 8.6001 9.15735 7.77785C9.70676 6.9556 10 5.98891 10 5C10 3.67392 9.47322 2.40215 8.53553 1.46447C7.59785 0.526784 6.32608 0 5 0ZM1.42857 5C1.42857 4.22725 1.67921 3.47534 2.14286 2.85714L2.53572 3.25C2.63738 3.34965 2.71817 3.46856 2.77336 3.59979C2.82854 3.73102 2.85703 3.87193 2.85714 4.01428V4.77857C2.85727 4.9206 2.91379 5.05677 3.01429 5.15714L3.41429 5.55714C3.51466 5.65764 3.65083 5.71416 3.79286 5.71428H4.28572V6.20714C4.28584 6.34917 4.34236 6.48534 4.44286 6.58571L4.84286 6.98571C4.94335 7.08608 4.99988 7.22225 5 7.36428V8.57143C4.0528 8.57143 3.14439 8.19515 2.47462 7.52538C1.80485 6.85561 1.42857 5.9472 1.42857 5ZM5.88571 8.45L7.31429 6.69286C7.37821 6.61357 7.41821 6.51771 7.4296 6.4165C7.44098 6.31529 7.42328 6.21293 7.37857 6.12143L6.96429 5.29286C6.91466 5.19595 6.83703 5.1162 6.7415 5.06398C6.64597 5.01175 6.53694 4.98946 6.42857 5H4.28572V4.86428C4.2864 4.79752 4.30541 4.73224 4.34068 4.67555C4.37595 4.61886 4.42613 4.57296 4.48572 4.54286L4.75714 4.40714C4.83221 4.36831 4.91549 4.34805 5 4.34805C5.08451 4.34805 5.16779 4.36831 5.24286 4.40714L5.71429 4.64286L5.98572 4.14286C6.04255 4.03755 6.07203 3.91966 6.07143 3.8V3.19286C6.07187 3.05226 6.12545 2.91703 6.22143 2.81429L6.98571 2.03571C7.55905 2.41917 8.00908 2.96045 8.28144 3.59415C8.55379 4.22785 8.63682 4.92686 8.52049 5.60673C8.40416 6.2866 8.09344 6.91823 7.62588 7.42532C7.15832 7.93242 6.55393 8.29327 5.88571 8.46428V8.45Z" fill="#99A2AD"/>
</svg>
