<svg width="40" height="40" viewBox="0 0 40 40" fill="none" xmlns="http://www.w3.org/2000/svg">
<path d="M36.1531 7.27188C35.9286 7.09673 35.6671 6.97504 35.3885 6.91602C35.1099 6.857 34.8216 6.86221 34.5453 6.93125L25.2188 9.2625L15.8438 4.575C15.4433 4.37465 14.9844 4.32421 14.55 4.43281L4.55 6.93281C4.14375 7.03325 3.78278 7.2667 3.52455 7.596C3.26632 7.9253 3.12567 8.33152 3.125 8.75V31.25C3.12504 31.5349 3.19001 31.8161 3.31498 32.0721C3.43994 32.3281 3.62161 32.5523 3.84619 32.7277C4.07076 32.903 4.33234 33.0248 4.61105 33.0839C4.88977 33.143 5.17828 33.1378 5.45469 33.0687L14.7812 30.7375L24.1562 35.425C24.5567 35.6254 25.0156 35.6758 25.45 35.5672L35.45 33.0672C35.8562 32.9668 36.2172 32.7333 36.4754 32.404C36.7337 32.0747 36.8743 31.6685 36.875 31.25V8.75C36.8749 8.46496 36.8099 8.18368 36.6848 7.92755C36.5597 7.67142 36.3779 7.44718 36.1531 7.27188ZM16.875 9.28438L23.125 12.4094V30.7156L16.875 27.5906V9.28438ZM6.875 10.2219L13.125 8.65938V27.2859L6.875 28.8484V10.2219ZM33.125 29.7859L26.875 31.3484V12.7141L33.125 11.1516V29.7859Z" fill="#99A2AD"/>
</svg>
