<svg width="54" height="38" viewBox="0 0 54 38" fill="none" xmlns="http://www.w3.org/2000/svg">
<g clip-path="url(#clip0_0_32)">
<path d="M20.2112 17.573C25.2297 17.573 29.6223 19.509 29.6223 23.766C29.6223 25.999 28.7548 27 26.9318 27H13.4905C11.6566 27 10.8 25.999 10.8 23.766C10.8 19.509 15.1926 17.573 20.2112 17.573ZM29.8529 18.904C29.765 18.211 30.2482 17.584 30.9401 17.496C31.6429 17.408 32.6532 17.353 33.3889 17.408C38.3855 17.826 42.8 19.509 42.8 23.766C42.8 25.999 41.9325 27 40.1096 27H32.763C32.0712 27 31.5111 26.439 31.5111 25.746L31.566 23.931C31.588 22.974 31.4452 22.028 31.1377 21.137C30.995 20.719 30.7753 20.345 30.5447 19.971L29.8639 18.904H29.8529ZM33.3889 5C36.332 5 38.7259 7.387 38.7259 10.346C38.7259 13.305 36.3429 15.692 33.3889 15.692C30.4349 15.692 28.0519 13.305 28.0519 10.346C28.0519 7.387 30.4459 5 33.3889 5ZM20.2112 5C23.1542 5 25.5482 7.387 25.5482 10.346C25.5482 13.305 23.1652 15.692 20.2112 15.692C17.2572 15.692 14.8742 13.294 14.8742 10.346C14.8742 7.398 17.2681 5 20.2112 5Z" fill="#0A66C2"/>
</g>
<rect x="20.8" y="32" width="12" height="6" rx="3" fill="#0A66C2"/>
<defs>
<clipPath id="clip0_0_32">
<rect width="32" height="32" fill="white" transform="translate(10.8)"/>
</clipPath>
</defs>
</svg>
