<svg width="398" height="120" viewBox="0 0 398 120" fill="none" xmlns="http://www.w3.org/2000/svg">
<rect width="120" height="120" rx="60" fill="#99A2AD"/>
<path d="M395.374 101.164L390.836 96.6254C390.647 96.4367 390.423 96.287 390.177 96.1848C389.93 96.0827 389.666 96.0302 389.399 96.0302C389.132 96.0302 388.868 96.0827 388.622 96.1848C388.375 96.287 388.151 96.4367 387.963 96.6254L375.439 109.15C375.25 109.338 375.1 109.562 374.997 109.808C374.895 110.055 374.843 110.319 374.844 110.586V115.125C374.844 115.664 375.058 116.18 375.439 116.561C375.82 116.942 376.336 117.156 376.875 117.156H381.414C381.681 117.157 381.945 117.105 382.192 117.003C382.438 116.9 382.662 116.75 382.85 116.561L395.374 104.036C395.754 103.655 395.968 103.139 395.968 102.6C395.968 102.062 395.754 101.545 395.374 101.164ZM381.242 114.719H377.281V110.758L385.813 102.227L389.773 106.187L381.242 114.719ZM391.5 104.461L387.539 100.5L389.402 98.6373L393.363 102.598L391.5 104.461Z" fill="#99A2AD"/>
</svg>
