<svg width="11" height="11" viewBox="0 0 11 11" fill="none" xmlns="http://www.w3.org/2000/svg">
<path d="M9.97092 6.26285H9.97095C10.3923 6.26285 10.7338 5.9213 10.7338 5.49998C10.7338 5.07865 10.3923 4.7371 9.97096 4.7371L6.26288 4.73708L6.26288 1.02901C6.26288 0.607682 5.92133 0.266129 5.5 0.266129C5.07867 0.266129 4.73712 0.607682 4.73712 1.02901L4.73708 4.73708L1.029 4.7371C0.60768 4.7371 0.266129 5.07865 0.266129 5.49998C0.266129 5.9213 0.607679 6.26285 1.029 6.26285H1.02904L4.73708 6.26236L4.73712 9.971C4.73712 10.3923 5.07867 10.7339 5.5 10.7339C5.92133 10.7339 6.26288 10.3923 6.26288 9.971L6.26288 6.26236L9.97092 6.26285Z" fill="#0A66C2" stroke="#0A66C2" stroke-width="0.5"/>
</svg>
