<svg width="54" height="38" viewBox="0 0 54 38" fill="none" xmlns="http://www.w3.org/2000/svg">
<path d="M26.8052 4C31.9838 4 35.9428 8.33608 35.9428 13.8074L35.9376 15.895C35.9381 16.2462 36.1652 16.6522 36.7812 17.3771C36.8585 17.4682 36.9313 17.5526 37.0906 17.7365C38.3136 19.1516 38.8 19.9708 38.8 21.2437C38.8 21.8163 38.7349 22.2612 38.4635 22.7949C37.8852 23.9325 36.6494 24.5714 34.8 24.5714L31.8272 24.5722C31.0639 27.1595 29.3284 28.5714 26.8 28.5714C24.2716 28.5714 22.536 27.1595 21.7727 24.5722L18.8 24.5714C16.8969 24.5714 15.648 23.9152 15.0948 22.7386C14.8549 22.2282 14.8 21.8142 14.8 21.2437C14.8 19.9714 15.2854 19.1522 16.5061 17.7373C16.665 17.5534 16.7377 17.469 16.8149 17.3779C17.4305 16.6521 17.6571 16.2459 17.6571 15.8939V13.8045C17.6571 8.33796 21.6252 4 26.8052 4ZM29.405 24.5723H24.195C24.7101 25.7636 25.5413 26.2857 26.8 26.2857C28.0587 26.2857 28.8898 25.7636 29.405 24.5723Z" fill="#0A66C2"/>
<rect x="20.8" y="32" width="12" height="6" rx="3" fill="#0A66C2"/>
</svg>
