<svg width="40" height="40" viewBox="0 0 40 40" fill="none" xmlns="http://www.w3.org/2000/svg">
<path fill-rule="evenodd" clip-rule="evenodd" d="M3.62666 19.2842C3.62666 11.1986 11.1824 5 20.0289 5C28.8754 5 36.4312 11.1986 36.4312 19.2842C36.4312 27.3698 28.8754 33.5684 20.0289 33.5684C18.0673 33.5684 16.1817 33.2686 14.4318 32.7162C12.3677 34.6426 9.3687 35.5686 5.7001 35.7127C4.20567 35.7714 3.12702 34.2171 3.75278 32.8257C4.6405 30.838 5.78749 28.5593 5.9235 26.5718C4.47089 24.4565 3.62666 21.9601 3.62666 19.2842ZM20.0289 7.85714C12.336 7.85714 6.4838 13.1699 6.4838 19.2842C6.4838 21.4799 7.21899 23.5397 8.51503 25.2851C8.69791 25.5314 8.79666 25.83 8.79666 26.1368C8.79666 28.4707 7.86628 30.6728 6.9189 32.7627C9.85615 32.4507 11.7831 31.5102 12.945 30.1429C13.3352 29.6837 13.9717 29.5187 14.5358 29.7306C16.2104 30.3595 18.068 30.7113 20.0289 30.7113C27.7219 30.7113 33.574 25.3986 33.574 19.2842C33.574 13.1699 27.7219 7.85714 20.0289 7.85714Z" fill="#0A66C2"/>
</svg>
