<svg width="64" height="40" viewBox="0 0 64 40" fill="none" xmlns="http://www.w3.org/2000/svg">
<circle cx="20" cy="20" r="20" fill="#99A2AD"/>
<path d="M63.5677 17.3169L57.3177 23.5669C57.2596 23.6251 57.1907 23.6712 57.1148 23.7026C57.039 23.7341 56.9576 23.7502 56.8755 23.7502C56.7934 23.7502 56.712 23.7341 56.6362 23.7026C56.5603 23.6712 56.4914 23.6251 56.4333 23.5669L50.1833 17.3169C50.0958 17.2295 50.0362 17.1181 50.012 16.9968C49.9879 16.8755 50.0003 16.7498 50.0476 16.6355C50.0949 16.5212 50.1751 16.4236 50.278 16.3549C50.3809 16.2863 50.5018 16.2497 50.6255 16.2498H63.1255C63.2492 16.2497 63.3701 16.2863 63.473 16.3549C63.5759 16.4236 63.656 16.5212 63.7034 16.6355C63.7507 16.7498 63.7631 16.8755 63.7389 16.9968C63.7148 17.1181 63.6552 17.2295 63.5677 17.3169Z" fill="#99A2AD"/>
</svg>
